<?xml version="1.0" standalone="yes"?>
<!-- SVG graphic -->
<svg xmlns='http://www.w3.org/2000/svg' xmlns:xlink='http://www.w3.org/1999/xlink'
width="325px" height="325px" preserveAspectRatio="xMinYMin meet" viewBox="0 0 325 325" version="1.1">
<rect x="5" y="0" width="2.5" height="2.5" fill="rgb(115,0,139)" tooltip="enable"><title>(1,0 69)</title></rect><rect x="10" y="0" width="2.5" height="2.5" fill="rgb(86,0,168)" tooltip="enable"><title>(2,0 52)</title></rect><rect x="20" y="0" width="2.5" height="2.5" fill="rgb(53,0,201)" tooltip="enable"><title>(4,0 32)</title></rect><rect x="25" y="0" width="2.5" height="2.5" fill="rgb(34,0,220)" tooltip="enable"><title>(5,0 21)</title></rect><rect x="295" y="0" width="2.5" height="2.5" fill="rgb(43,0,211)" tooltip="enable"><title>(59,0 26)</title></rect><rect x="300" y="0" width="2.5" height="2.5" fill="rgb(61,0,193)" tooltip="enable"><title>(60,0 37)</title></rect><rect x="305" y="0" width="2.5" height="2.5" fill="rgb(39,0,215)" tooltip="enable"><title>(61,0 24)</title></rect><rect x="10" y="5" width="2.5" height="2.5" fill="rgb(133,0,121)" tooltip="enable"><title>(2,1 80)</title></rect><rect x="15" y="5" width="2.5" height="2.5" fill="rgb(31,0,223)" tooltip="enable"><title>(3,1 19)</title></rect><rect x="20" y="5" width="2.5" height="2.5" fill="rgb(41,0,213)" tooltip="enable"><title>(4,1 25)</title></rect><rect x="25" y="5" width="2.5" height="2.5" fill="rgb(41,0,213)" tooltip="enable"><title>(5,1 25)</title></rect><rect x="30" y="5" width="2.5" height="2.5" fill="rgb(34,0,220)" tooltip="enable"><title>(6,1 21)</title></rect><rect x="285" y="5" width="2.5" height="2.5" fill="rgb(33,0,221)" tooltip="enable"><title>(57,1 20)</title></rect><rect x="290" y="5" width="2.5" height="2.5" fill="rgb(34,0,220)" tooltip="enable"><title>(58,1 21)</title></rect><rect x="295" y="5" width="2.5" height="2.5" fill="rgb(48,0,206)" tooltip="enable"><title>(59,1 29)</title></rect><rect x="300" y="5" width="2.5" height="2.5" fill="rgb(38,0,216)" tooltip="enable"><title>(60,1 23)</title></rect><rect x="305" y="5" width="2.5" height="2.5" fill="rgb(36,0,218)" tooltip="enable"><title>(61,1 22)</title></rect><rect x="15" y="10" width="2.5" height="2.5" fill="rgb(73,0,181)" tooltip="enable"><title>(3,2 44)</title></rect><rect x="20" y="10" width="2.5" height="2.5" fill="rgb(89,0,165)" tooltip="enable"><title>(4,2 54)</title></rect><rect x="25" y="10" width="2.5" height="2.5" fill="rgb(75,0,179)" tooltip="enable"><title>(5,2 45)</title></rect><rect x="30" y="10" width="2.5" height="2.5" fill="rgb(54,0,200)" tooltip="enable"><title>(6,2 33)</title></rect><rect x="35" y="10" width="2.5" height="2.5" fill="rgb(33,0,221)" tooltip="enable"><title>(7,2 20)</title></rect><rect x="265" y="10" width="2.5" height="2.5" fill="rgb(34,0,220)" tooltip="enable"><title>(53,2 21)</title></rect><rect x="270" y="10" width="2.5" height="2.5" fill="rgb(36,0,218)" tooltip="enable"><title>(54,2 22)</title></rect><rect x="280" y="10" width="2.5" height="2.5" fill="rgb(31,0,223)" tooltip="enable"><title>(56,2 19)</title></rect><rect x="285" y="10" width="2.5" height="2.5" fill="rgb(36,0,218)" tooltip="enable"><title>(57,2 22)</title></rect><rect x="290" y="10" width="2.5" height="2.5" fill="rgb(41,0,213)" tooltip="enable"><title>(58,2 25)</title></rect><rect x="295" y="10" width="2.5" height="2.5" fill="rgb(66,0,188)" tooltip="enable"><title>(59,2 40)</title></rect><rect x="300" y="10" width="2.5" height="2.5" fill="rgb(65,0,189)" tooltip="enable"><title>(60,2 39)</title></rect><rect x="305" y="10" width="2.5" height="2.5" fill="rgb(61,0,193)" tooltip="enable"><title>(61,2 37)</title></rect><rect x="20" y="15" width="2.5" height="2.5" fill="rgb(56,0,198)" tooltip="enable"><title>(4,3 34)</title></rect><rect x="25" y="15" width="2.5" height="2.5" fill="rgb(29,0,225)" tooltip="enable"><title>(5,3 18)</title></rect><rect x="265" y="15" width="2.5" height="2.5" fill="rgb(36,0,218)" tooltip="enable"><title>(53,3 22)</title></rect><rect x="270" y="15" width="2.5" height="2.5" fill="rgb(34,0,220)" tooltip="enable"><title>(54,3 21)</title></rect><rect x="275" y="15" width="2.5" height="2.5" fill="rgb(38,0,216)" tooltip="enable"><title>(55,3 23)</title></rect><rect x="280" y="15" width="2.5" height="2.5" fill="rgb(29,0,225)" tooltip="enable"><title>(56,3 18)</title></rect><rect x="290" y="15" width="2.5" height="2.5" fill="rgb(41,0,213)" tooltip="enable"><title>(58,3 25)</title></rect><rect x="295" y="15" width="2.5" height="2.5" fill="rgb(46,0,208)" tooltip="enable"><title>(59,3 28)</title></rect><rect x="300" y="15" width="2.5" height="2.5" fill="rgb(33,0,221)" tooltip="enable"><title>(60,3 20)</title></rect><rect x="25" y="20" width="2.5" height="2.5" fill="rgb(176,0,78)" tooltip="enable"><title>(5,4 106)</title></rect><rect x="30" y="20" width="2.5" height="2.5" fill="rgb(49,0,205)" tooltip="enable"><title>(6,4 30)</title></rect><rect x="35" y="20" width="2.5" height="2.5" fill="rgb(49,0,205)" tooltip="enable"><title>(7,4 30)</title></rect><rect x="40" y="20" width="2.5" height="2.5" fill="rgb(51,0,203)" tooltip="enable"><title>(8,4 31)</title></rect><rect x="280" y="20" width="2.5" height="2.5" fill="rgb(31,0,223)" tooltip="enable"><title>(56,4 19)</title></rect><rect x="290" y="20" width="2.5" height="2.5" fill="rgb(48,0,206)" tooltip="enable"><title>(58,4 29)</title></rect><rect x="295" y="20" width="2.5" height="2.5" fill="rgb(51,0,203)" tooltip="enable"><title>(59,4 31)</title></rect><rect x="300" y="20" width="2.5" height="2.5" fill="rgb(59,0,195)" tooltip="enable"><title>(60,4 36)</title></rect><rect x="305" y="20" width="2.5" height="2.5" fill="rgb(56,0,198)" tooltip="enable"><title>(61,4 34)</title></rect><rect x="30" y="25" width="2.5" height="2.5" fill="rgb(106,0,148)" tooltip="enable"><title>(6,5 64)</title></rect><rect x="35" y="25" width="2.5" height="2.5" fill="rgb(69,0,185)" tooltip="enable"><title>(7,5 42)</title></rect><rect x="40" y="25" width="2.5" height="2.5" fill="rgb(59,0,195)" tooltip="enable"><title>(8,5 36)</title></rect><rect x="45" y="25" width="2.5" height="2.5" fill="rgb(36,0,218)" tooltip="enable"><title>(9,5 22)</title></rect><rect x="50" y="25" width="2.5" height="2.5" fill="rgb(34,0,220)" tooltip="enable"><title>(10,5 21)</title></rect><rect x="300" y="25" width="2.5" height="2.5" fill="rgb(39,0,215)" tooltip="enable"><title>(60,5 24)</title></rect><rect x="305" y="25" width="2.5" height="2.5" fill="rgb(33,0,221)" tooltip="enable"><title>(61,5 20)</title></rect><rect x="35" y="30" width="2.5" height="2.5" fill="rgb(101,0,153)" tooltip="enable"><title>(7,6 61)</title></rect><rect x="40" y="30" width="2.5" height="2.5" fill="rgb(61,0,193)" tooltip="enable"><title>(8,6 37)</title></rect><rect x="45" y="30" width="2.5" height="2.5" fill="rgb(48,0,206)" tooltip="enable"><title>(9,6 29)</title></rect><rect x="140" y="30" width="2.5" height="2.5" fill="rgb(39,0,215)" tooltip="enable"><title>(28,6 24)</title></rect><rect x="300" y="30" width="2.5" height="2.5" fill="rgb(33,0,221)" tooltip="enable"><title>(60,6 20)</title></rect><rect x="40" y="35" width="2.5" height="2.5" fill="rgb(113,0,141)" tooltip="enable"><title>(8,7 68)</title></rect><rect x="45" y="35" width="2.5" height="2.5" fill="rgb(61,0,193)" tooltip="enable"><title>(9,7 37)</title></rect><rect x="295" y="35" width="2.5" height="2.5" fill="rgb(34,0,220)" tooltip="enable"><title>(59,7 21)</title></rect><rect x="45" y="40" width="2.5" height="2.5" fill="rgb(96,0,158)" tooltip="enable"><title>(9,8 58)</title></rect><rect x="50" y="40" width="2.5" height="2.5" fill="rgb(58,0,196)" tooltip="enable"><title>(10,8 35)</title></rect><rect x="50" y="45" width="2.5" height="2.5" fill="rgb(140,0,114)" tooltip="enable"><title>(10,9 84)</title></rect><rect x="55" y="45" width="2.5" height="2.5" fill="rgb(54,0,200)" tooltip="enable"><title>(11,9 33)</title></rect><rect x="55" y="50" width="2.5" height="2.5" fill="rgb(253,0,1)" tooltip="enable"><title>(11,10 152)</title></rect><rect x="290" y="50" width="2.5" height="2.5" fill="rgb(29,0,225)" tooltip="enable"><title>(58,10 18)</title></rect><rect x="80" y="75" width="2.5" height="2.5" fill="rgb(128,0,126)" tooltip="enable"><title>(16,15 77)</title></rect><rect x="85" y="75" width="2.5" height="2.5" fill="rgb(79,0,175)" tooltip="enable"><title>(17,15 48)</title></rect><rect x="90" y="75" width="2.5" height="2.5" fill="rgb(48,0,206)" tooltip="enable"><title>(18,15 29)</title></rect><rect x="95" y="75" width="2.5" height="2.5" fill="rgb(36,0,218)" tooltip="enable"><title>(19,15 22)</title></rect><rect x="85" y="80" width="2.5" height="2.5" fill="rgb(170,0,84)" tooltip="enable"><title>(17,16 102)</title></rect><rect x="90" y="80" width="2.5" height="2.5" fill="rgb(86,0,168)" tooltip="enable"><title>(18,16 52)</title></rect><rect x="95" y="80" width="2.5" height="2.5" fill="rgb(44,0,210)" tooltip="enable"><title>(19,16 27)</title></rect><rect x="120" y="80" width="2.5" height="2.5" fill="rgb(33,0,221)" tooltip="enable"><title>(24,16 20)</title></rect><rect x="90" y="85" width="2.5" height="2.5" fill="rgb(156,0,98)" tooltip="enable"><title>(18,17 94)</title></rect><rect x="95" y="85" width="2.5" height="2.5" fill="rgb(43,0,211)" tooltip="enable"><title>(19,17 26)</title></rect><rect x="100" y="85" width="2.5" height="2.5" fill="rgb(36,0,218)" tooltip="enable"><title>(20,17 22)</title></rect><rect x="120" y="85" width="2.5" height="2.5" fill="rgb(33,0,221)" tooltip="enable"><title>(24,17 20)</title></rect><rect x="275" y="85" width="2.5" height="2.5" fill="rgb(29,0,225)" tooltip="enable"><title>(55,17 18)</title></rect><rect x="290" y="85" width="2.5" height="2.5" fill="rgb(41,0,213)" tooltip="enable"><title>(58,17 25)</title></rect><rect x="95" y="90" width="2.5" height="2.5" fill="rgb(140,0,114)" tooltip="enable"><title>(19,18 84)</title></rect><rect x="100" y="90" width="2.5" height="2.5" fill="rgb(76,0,178)" tooltip="enable"><title>(20,18 46)</title></rect><rect x="105" y="90" width="2.5" height="2.5" fill="rgb(49,0,205)" tooltip="enable"><title>(21,18 30)</title></rect><rect x="110" y="90" width="2.5" height="2.5" fill="rgb(39,0,215)" tooltip="enable"><title>(22,18 24)</title></rect><rect x="115" y="90" width="2.5" height="2.5" fill="rgb(39,0,215)" tooltip="enable"><title>(23,18 24)</title></rect><rect x="120" y="90" width="2.5" height="2.5" fill="rgb(48,0,206)" tooltip="enable"><title>(24,18 29)</title></rect><rect x="125" y="90" width="2.5" height="2.5" fill="rgb(38,0,216)" tooltip="enable"><title>(25,18 23)</title></rect><rect x="130" y="90" width="2.5" height="2.5" fill="rgb(36,0,218)" tooltip="enable"><title>(26,18 22)</title></rect><rect x="100" y="95" width="2.5" height="2.5" fill="rgb(133,0,121)" tooltip="enable"><title>(20,19 80)</title></rect><rect x="105" y="95" width="2.5" height="2.5" fill="rgb(75,0,179)" tooltip="enable"><title>(21,19 45)</title></rect><rect x="110" y="95" width="2.5" height="2.5" fill="rgb(63,0,191)" tooltip="enable"><title>(22,19 38)</title></rect><rect x="115" y="95" width="2.5" height="2.5" fill="rgb(54,0,200)" tooltip="enable"><title>(23,19 33)</title></rect><rect x="120" y="95" width="2.5" height="2.5" fill="rgb(59,0,195)" tooltip="enable"><title>(24,19 36)</title></rect><rect x="125" y="95" width="2.5" height="2.5" fill="rgb(29,0,225)" tooltip="enable"><title>(25,19 18)</title></rect><rect x="130" y="95" width="2.5" height="2.5" fill="rgb(33,0,221)" tooltip="enable"><title>(26,19 20)</title></rect><rect x="135" y="95" width="2.5" height="2.5" fill="rgb(33,0,221)" tooltip="enable"><title>(27,19 20)</title></rect><rect x="140" y="95" width="2.5" height="2.5" fill="rgb(34,0,220)" tooltip="enable"><title>(28,19 21)</title></rect><rect x="105" y="100" width="2.5" height="2.5" fill="rgb(118,0,136)" tooltip="enable"><title>(21,20 71)</title></rect><rect x="110" y="100" width="2.5" height="2.5" fill="rgb(119,0,135)" tooltip="enable"><title>(22,20 72)</title></rect><rect x="115" y="100" width="2.5" height="2.5" fill="rgb(79,0,175)" tooltip="enable"><title>(23,20 48)</title></rect><rect x="120" y="100" width="2.5" height="2.5" fill="rgb(54,0,200)" tooltip="enable"><title>(24,20 33)</title></rect><rect x="125" y="100" width="2.5" height="2.5" fill="rgb(33,0,221)" tooltip="enable"><title>(25,20 20)</title></rect><rect x="130" y="100" width="2.5" height="2.5" fill="rgb(29,0,225)" tooltip="enable"><title>(26,20 18)</title></rect><rect x="140" y="100" width="2.5" height="2.5" fill="rgb(29,0,225)" tooltip="enable"><title>(28,20 18)</title></rect><rect x="110" y="105" width="2.5" height="2.5" fill="rgb(171,0,83)" tooltip="enable"><title>(22,21 103)</title></rect><rect x="115" y="105" width="2.5" height="2.5" fill="rgb(81,0,173)" tooltip="enable"><title>(23,21 49)</title></rect><rect x="120" y="105" width="2.5" height="2.5" fill="rgb(65,0,189)" tooltip="enable"><title>(24,21 39)</title></rect><rect x="125" y="105" width="2.5" height="2.5" fill="rgb(38,0,216)" tooltip="enable"><title>(25,21 23)</title></rect><rect x="115" y="110" width="2.5" height="2.5" fill="rgb(158,0,96)" tooltip="enable"><title>(23,22 95)</title></rect><rect x="120" y="110" width="2.5" height="2.5" fill="rgb(83,0,171)" tooltip="enable"><title>(24,22 50)</title></rect><rect x="125" y="110" width="2.5" height="2.5" fill="rgb(39,0,215)" tooltip="enable"><title>(25,22 24)</title></rect><rect x="130" y="110" width="2.5" height="2.5" fill="rgb(43,0,211)" tooltip="enable"><title>(26,22 26)</title></rect><rect x="140" y="110" width="2.5" height="2.5" fill="rgb(36,0,218)" tooltip="enable"><title>(28,22 22)</title></rect><rect x="120" y="115" width="2.5" height="2.5" fill="rgb(186,0,68)" tooltip="enable"><title>(24,23 112)</title></rect><rect x="125" y="115" width="2.5" height="2.5" fill="rgb(118,0,136)" tooltip="enable"><title>(25,23 71)</title></rect><rect x="130" y="115" width="2.5" height="2.5" fill="rgb(65,0,189)" tooltip="enable"><title>(26,23 39)</title></rect><rect x="135" y="115" width="2.5" height="2.5" fill="rgb(41,0,213)" tooltip="enable"><title>(27,23 25)</title></rect><rect x="140" y="115" width="2.5" height="2.5" fill="rgb(38,0,216)" tooltip="enable"><title>(28,23 23)</title></rect><rect x="145" y="115" width="2.5" height="2.5" fill="rgb(36,0,218)" tooltip="enable"><title>(29,23 22)</title></rect><rect x="125" y="120" width="2.5" height="2.5" fill="rgb(196,0,58)" tooltip="enable"><title>(25,24 118)</title></rect><rect x="130" y="120" width="2.5" height="2.5" fill="rgb(146,0,108)" tooltip="enable"><title>(26,24 88)</title></rect><rect x="135" y="120" width="2.5" height="2.5" fill="rgb(78,0,176)" tooltip="enable"><title>(27,24 47)</title></rect><rect x="140" y="120" width="2.5" height="2.5" fill="rgb(56,0,198)" tooltip="enable"><title>(28,24 34)</title></rect><rect x="145" y="120" width="2.5" height="2.5" fill="rgb(36,0,218)" tooltip="enable"><title>(29,24 22)</title></rect><rect x="150" y="120" width="2.5" height="2.5" fill="rgb(33,0,221)" tooltip="enable"><title>(30,24 20)</title></rect><rect x="130" y="125" width="2.5" height="2.5" fill="rgb(216,0,38)" tooltip="enable"><title>(26,25 130)</title></rect><rect x="135" y="125" width="2.5" height="2.5" fill="rgb(125,0,129)" tooltip="enable"><title>(27,25 75)</title></rect><rect x="140" y="125" width="2.5" height="2.5" fill="rgb(61,0,193)" tooltip="enable"><title>(28,25 37)</title></rect><rect x="145" y="125" width="2.5" height="2.5" fill="rgb(48,0,206)" tooltip="enable"><title>(29,25 29)</title></rect><rect x="150" y="125" width="2.5" height="2.5" fill="rgb(43,0,211)" tooltip="enable"><title>(30,25 26)</title></rect><rect x="135" y="130" width="2.5" height="2.5" fill="rgb(210,0,44)" tooltip="enable"><title>(27,26 126)</title></rect><rect x="140" y="130" width="2.5" height="2.5" fill="rgb(81,0,173)" tooltip="enable"><title>(28,26 49)</title></rect><rect x="145" y="130" width="2.5" height="2.5" fill="rgb(49,0,205)" tooltip="enable"><title>(29,26 30)</title></rect><rect x="150" y="130" width="2.5" height="2.5" fill="rgb(54,0,200)" tooltip="enable"><title>(30,26 33)</title></rect><rect x="155" y="130" width="2.5" height="2.5" fill="rgb(33,0,221)" tooltip="enable"><title>(31,26 20)</title></rect><rect x="140" y="135" width="2.5" height="2.5" fill="rgb(175,0,79)" tooltip="enable"><title>(28,27 105)</title></rect><rect x="145" y="135" width="2.5" height="2.5" fill="rgb(56,0,198)" tooltip="enable"><title>(29,27 34)</title></rect><rect x="150" y="135" width="2.5" height="2.5" fill="rgb(43,0,211)" tooltip="enable"><title>(30,27 26)</title></rect><rect x="155" y="135" width="2.5" height="2.5" fill="rgb(34,0,220)" tooltip="enable"><title>(31,27 21)</title></rect><rect x="145" y="140" width="2.5" height="2.5" fill="rgb(105,0,149)" tooltip="enable"><title>(29,28 63)</title></rect><rect x="150" y="140" width="2.5" height="2.5" fill="rgb(54,0,200)" tooltip="enable"><title>(30,28 33)</title></rect><rect x="155" y="140" width="2.5" height="2.5" fill="rgb(53,0,201)" tooltip="enable"><title>(31,28 32)</title></rect><rect x="280" y="140" width="2.5" height="2.5" fill="rgb(29,0,225)" tooltip="enable"><title>(56,28 18)</title></rect><rect x="150" y="145" width="2.5" height="2.5" fill="rgb(131,0,123)" tooltip="enable"><title>(30,29 79)</title></rect><rect x="155" y="145" width="2.5" height="2.5" fill="rgb(58,0,196)" tooltip="enable"><title>(31,29 35)</title></rect><rect x="160" y="145" width="2.5" height="2.5" fill="rgb(38,0,216)" tooltip="enable"><title>(32,29 23)</title></rect><rect x="155" y="150" width="2.5" height="2.5" fill="rgb(93,0,161)" tooltip="enable"><title>(31,30 56)</title></rect><rect x="160" y="150" width="2.5" height="2.5" fill="rgb(38,0,216)" tooltip="enable"><title>(32,30 23)</title></rect><rect x="165" y="150" width="2.5" height="2.5" fill="rgb(33,0,221)" tooltip="enable"><title>(33,30 20)</title></rect><rect x="160" y="155" width="2.5" height="2.5" fill="rgb(75,0,179)" tooltip="enable"><title>(32,31 45)</title></rect><rect x="165" y="155" width="2.5" height="2.5" fill="rgb(34,0,220)" tooltip="enable"><title>(33,31 21)</title></rect><rect x="165" y="160" width="2.5" height="2.5" fill="rgb(78,0,176)" tooltip="enable"><title>(33,32 47)</title></rect><rect x="170" y="160" width="2.5" height="2.5" fill="rgb(36,0,218)" tooltip="enable"><title>(34,32 22)</title></rect><rect x="205" y="160" width="2.5" height="2.5" fill="rgb(31,0,223)" tooltip="enable"><title>(41,32 19)</title></rect><rect x="170" y="165" width="2.5" height="2.5" fill="rgb(98,0,156)" tooltip="enable"><title>(34,33 59)</title></rect><rect x="175" y="170" width="2.5" height="2.5" fill="rgb(88,0,166)" tooltip="enable"><title>(35,34 53)</title></rect><rect x="180" y="170" width="2.5" height="2.5" fill="rgb(41,0,213)" tooltip="enable"><title>(36,34 25)</title></rect><rect x="205" y="170" width="2.5" height="2.5" fill="rgb(31,0,223)" tooltip="enable"><title>(41,34 19)</title></rect><rect x="210" y="170" width="2.5" height="2.5" fill="rgb(29,0,225)" tooltip="enable"><title>(42,34 18)</title></rect><rect x="180" y="175" width="2.5" height="2.5" fill="rgb(59,0,195)" tooltip="enable"><title>(36,35 36)</title></rect><rect x="185" y="180" width="2.5" height="2.5" fill="rgb(44,0,210)" tooltip="enable"><title>(37,36 27)</title></rect><rect x="200" y="185" width="2.5" height="2.5" fill="rgb(31,0,223)" tooltip="enable"><title>(40,37 19)</title></rect><rect x="195" y="190" width="2.5" height="2.5" fill="rgb(41,0,213)" tooltip="enable"><title>(39,38 25)</title></rect><rect x="275" y="190" width="2.5" height="2.5" fill="rgb(79,0,175)" tooltip="enable"><title>(55,38 48)</title></rect><rect x="290" y="190" width="2.5" height="2.5" fill="rgb(91,0,163)" tooltip="enable"><title>(58,38 55)</title></rect><rect x="300" y="190" width="2.5" height="2.5" fill="rgb(59,0,195)" tooltip="enable"><title>(60,38 36)</title></rect><rect x="200" y="195" width="2.5" height="2.5" fill="rgb(39,0,215)" tooltip="enable"><title>(40,39 24)</title></rect><rect x="205" y="195" width="2.5" height="2.5" fill="rgb(36,0,218)" tooltip="enable"><title>(41,39 22)</title></rect><rect x="210" y="195" width="2.5" height="2.5" fill="rgb(34,0,220)" tooltip="enable"><title>(42,39 21)</title></rect><rect x="205" y="200" width="2.5" height="2.5" fill="rgb(75,0,179)" tooltip="enable"><title>(41,40 45)</title></rect><rect x="210" y="205" width="2.5" height="2.5" fill="rgb(49,0,205)" tooltip="enable"><title>(42,41 30)</title></rect><rect x="240" y="230" width="2.5" height="2.5" fill="rgb(58,0,196)" tooltip="enable"><title>(48,46 35)</title></rect><rect x="245" y="230" width="2.5" height="2.5" fill="rgb(58,0,196)" tooltip="enable"><title>(49,46 35)</title></rect><rect x="250" y="230" width="2.5" height="2.5" fill="rgb(41,0,213)" tooltip="enable"><title>(50,46 25)</title></rect><rect x="260" y="230" width="2.5" height="2.5" fill="rgb(29,0,225)" tooltip="enable"><title>(52,46 18)</title></rect><rect x="265" y="230" width="2.5" height="2.5" fill="rgb(34,0,220)" tooltip="enable"><title>(53,46 21)</title></rect><rect x="240" y="235" width="2.5" height="2.5" fill="rgb(33,0,221)" tooltip="enable"><title>(48,47 20)</title></rect><rect x="245" y="240" width="2.5" height="2.5" fill="rgb(65,0,189)" tooltip="enable"><title>(49,48 39)</title></rect><rect x="250" y="240" width="2.5" height="2.5" fill="rgb(38,0,216)" tooltip="enable"><title>(50,48 23)</title></rect><rect x="255" y="240" width="2.5" height="2.5" fill="rgb(29,0,225)" tooltip="enable"><title>(51,48 18)</title></rect><rect x="250" y="245" width="2.5" height="2.5" fill="rgb(83,0,171)" tooltip="enable"><title>(50,49 50)</title></rect><rect x="255" y="245" width="2.5" height="2.5" fill="rgb(51,0,203)" tooltip="enable"><title>(51,49 31)</title></rect><rect x="260" y="245" width="2.5" height="2.5" fill="rgb(29,0,225)" tooltip="enable"><title>(52,49 18)</title></rect><rect x="265" y="245" width="2.5" height="2.5" fill="rgb(34,0,220)" tooltip="enable"><title>(53,49 21)</title></rect><rect x="270" y="245" width="2.5" height="2.5" fill="rgb(29,0,225)" tooltip="enable"><title>(54,49 18)</title></rect><rect x="275" y="245" width="2.5" height="2.5" fill="rgb(39,0,215)" tooltip="enable"><title>(55,49 24)</title></rect><rect x="255" y="250" width="2.5" height="2.5" fill="rgb(131,0,123)" tooltip="enable"><title>(51,50 79)</title></rect><rect x="260" y="250" width="2.5" height="2.5" fill="rgb(66,0,188)" tooltip="enable"><title>(52,50 40)</title></rect><rect x="265" y="250" width="2.5" height="2.5" fill="rgb(46,0,208)" tooltip="enable"><title>(53,50 28)</title></rect><rect x="270" y="250" width="2.5" height="2.5" fill="rgb(69,0,185)" tooltip="enable"><title>(54,50 42)</title></rect><rect x="285" y="250" width="2.5" height="2.5" fill="rgb(83,0,171)" tooltip="enable"><title>(57,50 50)</title></rect><rect x="290" y="250" width="2.5" height="2.5" fill="rgb(109,0,145)" tooltip="enable"><title>(58,50 66)</title></rect><rect x="300" y="250" width="2.5" height="2.5" fill="rgb(71,0,183)" tooltip="enable"><title>(60,50 43)</title></rect><rect x="260" y="255" width="2.5" height="2.5" fill="rgb(145,0,109)" tooltip="enable"><title>(52,51 87)</title></rect><rect x="265" y="255" width="2.5" height="2.5" fill="rgb(91,0,163)" tooltip="enable"><title>(53,51 55)</title></rect><rect x="270" y="255" width="2.5" height="2.5" fill="rgb(48,0,206)" tooltip="enable"><title>(54,51 29)</title></rect><rect x="290" y="255" width="2.5" height="2.5" fill="rgb(63,0,191)" tooltip="enable"><title>(58,51 38)</title></rect><rect x="300" y="255" width="2.5" height="2.5" fill="rgb(78,0,176)" tooltip="enable"><title>(60,51 47)</title></rect><rect x="265" y="260" width="2.5" height="2.5" fill="rgb(188,0,66)" tooltip="enable"><title>(53,52 113)</title></rect><rect x="270" y="260" width="2.5" height="2.5" fill="rgb(108,0,146)" tooltip="enable"><title>(54,52 65)</title></rect><rect x="275" y="260" width="2.5" height="2.5" fill="rgb(73,0,181)" tooltip="enable"><title>(55,52 44)</title></rect><rect x="280" y="260" width="2.5" height="2.5" fill="rgb(49,0,205)" tooltip="enable"><title>(56,52 30)</title></rect><rect x="285" y="260" width="2.5" height="2.5" fill="rgb(41,0,213)" tooltip="enable"><title>(57,52 25)</title></rect><rect x="290" y="260" width="2.5" height="2.5" fill="rgb(39,0,215)" tooltip="enable"><title>(58,52 24)</title></rect><rect x="270" y="265" width="2.5" height="2.5" fill="rgb(175,0,79)" tooltip="enable"><title>(54,53 105)</title></rect><rect x="275" y="265" width="2.5" height="2.5" fill="rgb(99,0,155)" tooltip="enable"><title>(55,53 60)</title></rect><rect x="280" y="265" width="2.5" height="2.5" fill="rgb(75,0,179)" tooltip="enable"><title>(56,53 45)</title></rect><rect x="285" y="265" width="2.5" height="2.5" fill="rgb(49,0,205)" tooltip="enable"><title>(57,53 30)</title></rect><rect x="290" y="265" width="2.5" height="2.5" fill="rgb(65,0,189)" tooltip="enable"><title>(58,53 39)</title></rect><rect x="295" y="265" width="2.5" height="2.5" fill="rgb(49,0,205)" tooltip="enable"><title>(59,53 30)</title></rect><rect x="300" y="265" width="2.5" height="2.5" fill="rgb(31,0,223)" tooltip="enable"><title>(60,53 19)</title></rect><rect x="275" y="270" width="2.5" height="2.5" fill="rgb(223,0,31)" tooltip="enable"><title>(55,54 134)</title></rect><rect x="280" y="270" width="2.5" height="2.5" fill="rgb(106,0,148)" tooltip="enable"><title>(56,54 64)</title></rect><rect x="285" y="270" width="2.5" height="2.5" fill="rgb(76,0,178)" tooltip="enable"><title>(57,54 46)</title></rect><rect x="290" y="270" width="2.5" height="2.5" fill="rgb(59,0,195)" tooltip="enable"><title>(58,54 36)</title></rect><rect x="295" y="270" width="2.5" height="2.5" fill="rgb(69,0,185)" tooltip="enable"><title>(59,54 42)</title></rect><rect x="300" y="270" width="2.5" height="2.5" fill="rgb(59,0,195)" tooltip="enable"><title>(60,54 36)</title></rect><rect x="305" y="270" width="2.5" height="2.5" fill="rgb(31,0,223)" tooltip="enable"><title>(61,54 19)</title></rect><rect x="280" y="275" width="2.5" height="2.5" fill="rgb(155,0,99)" tooltip="enable"><title>(56,55 93)</title></rect><rect x="285" y="275" width="2.5" height="2.5" fill="rgb(69,0,185)" tooltip="enable"><title>(57,55 42)</title></rect><rect x="290" y="275" width="2.5" height="2.5" fill="rgb(66,0,188)" tooltip="enable"><title>(58,55 40)</title></rect><rect x="295" y="275" width="2.5" height="2.5" fill="rgb(39,0,215)" tooltip="enable"><title>(59,55 24)</title></rect><rect x="300" y="275" width="2.5" height="2.5" fill="rgb(29,0,225)" tooltip="enable"><title>(60,55 18)</title></rect><rect x="285" y="280" width="2.5" height="2.5" fill="rgb(173,0,81)" tooltip="enable"><title>(57,56 104)</title></rect><rect x="290" y="280" width="2.5" height="2.5" fill="rgb(151,0,103)" tooltip="enable"><title>(58,56 91)</title></rect><rect x="295" y="280" width="2.5" height="2.5" fill="rgb(86,0,168)" tooltip="enable"><title>(59,56 52)</title></rect><rect x="300" y="280" width="2.5" height="2.5" fill="rgb(59,0,195)" tooltip="enable"><title>(60,56 36)</title></rect><rect x="305" y="280" width="2.5" height="2.5" fill="rgb(38,0,216)" tooltip="enable"><title>(61,56 23)</title></rect><rect x="290" y="285" width="2.5" height="2.5" fill="rgb(215,0,39)" tooltip="enable"><title>(58,57 129)</title></rect><rect x="295" y="285" width="2.5" height="2.5" fill="rgb(141,0,113)" tooltip="enable"><title>(59,57 85)</title></rect><rect x="300" y="285" width="2.5" height="2.5" fill="rgb(88,0,166)" tooltip="enable"><title>(60,57 53)</title></rect><rect x="305" y="285" width="2.5" height="2.5" fill="rgb(59,0,195)" tooltip="enable"><title>(61,57 36)</title></rect><rect x="295" y="290" width="2.5" height="2.5" fill="rgb(213,0,41)" tooltip="enable"><title>(59,58 128)</title></rect><rect x="300" y="290" width="2.5" height="2.5" fill="rgb(150,0,104)" tooltip="enable"><title>(60,58 90)</title></rect><rect x="305" y="290" width="2.5" height="2.5" fill="rgb(69,0,185)" tooltip="enable"><title>(61,58 42)</title></rect><rect x="300" y="295" width="2.5" height="2.5" fill="rgb(255,0,0)" tooltip="enable"><title>(60,59 153)</title></rect><rect x="305" y="295" width="2.5" height="2.5" fill="rgb(121,0,133)" tooltip="enable"><title>(61,59 73)</title></rect><rect x="305" y="300" width="2.5" height="2.5" fill="rgb(153,0,101)" tooltip="enable"><title>(61,60 92)</title></rect><text x="315" y="5" font-size="5" fill="black">0</text>
<text x="315" y="305" font-size="5" fill="black">62</text>
<polyline points="315,10,315,300" stroke="black" stroke-width="1" fill="none"/>
<text x="5" y="315" font-size="5" fill="black">0</text>
<text x="305" y="315" font-size="5" fill="black">62</text>
<polyline points="10,315,300,315" stroke="black" stroke-width="1" fill="none"/>
</svg>