<?xml version="1.0" standalone="yes"?>
<!-- SVG graphic -->
<svg xmlns='http://www.w3.org/2000/svg' xmlns:xlink='http://www.w3.org/1999/xlink'
 version="1.1">
<rect x="0" y="0" width="6" height="200" stroke="black" stroke-width="1" fill="blue" tooltip="enable"><title>(0,272)</title></rect><rect x="6" y="48.5294" width="6" height="151.471" stroke="black" stroke-width="1" fill="blue" tooltip="enable"><title>(0.0382431,206)</title></rect><rect x="12" y="58.8235" width="6" height="141.176" stroke="black" stroke-width="1" fill="blue" tooltip="enable"><title>(0.0764863,192)</title></rect><rect x="18" y="83.0882" width="6" height="116.912" stroke="black" stroke-width="1" fill="blue" tooltip="enable"><title>(0.114729,159)</title></rect><rect x="24" y="81.6177" width="6" height="118.382" stroke="black" stroke-width="1" fill="blue" tooltip="enable"><title>(0.152973,161)</title></rect><rect x="30" y="103.676" width="6" height="96.3235" stroke="black" stroke-width="1" fill="blue" tooltip="enable"><title>(0.191216,131)</title></rect><rect x="36" y="114.706" width="6" height="85.2941" stroke="black" stroke-width="1" fill="blue" tooltip="enable"><title>(0.229459,116)</title></rect><rect x="42" y="119.853" width="6" height="80.1471" stroke="black" stroke-width="1" fill="blue" tooltip="enable"><title>(0.267702,109)</title></rect><rect x="48" y="116.912" width="6" height="83.0882" stroke="black" stroke-width="1" fill="blue" tooltip="enable"><title>(0.305945,113)</title></rect><rect x="54" y="108.088" width="6" height="91.9118" stroke="black" stroke-width="1" fill="blue" tooltip="enable"><title>(0.344188,125)</title></rect><rect x="60" y="113.971" width="6" height="86.0294" stroke="black" stroke-width="1" fill="blue" tooltip="enable"><title>(0.382431,117)</title></rect><rect x="66" y="141.912" width="6" height="58.0882" stroke="black" stroke-width="1" fill="blue" tooltip="enable"><title>(0.420675,79)</title></rect><rect x="72" y="141.176" width="6" height="58.8235" stroke="black" stroke-width="1" fill="blue" tooltip="enable"><title>(0.458918,80)</title></rect><rect x="78" y="148.529" width="6" height="51.4706" stroke="black" stroke-width="1" fill="blue" tooltip="enable"><title>(0.497161,70)</title></rect><rect x="84" y="147.059" width="6" height="52.9412" stroke="black" stroke-width="1" fill="blue" tooltip="enable"><title>(0.535404,72)</title></rect><rect x="90" y="148.529" width="6" height="51.4706" stroke="black" stroke-width="1" fill="blue" tooltip="enable"><title>(0.573647,70)</title></rect><rect x="96" y="159.559" width="6" height="40.4412" stroke="black" stroke-width="1" fill="blue" tooltip="enable"><title>(0.61189,55)</title></rect><rect x="102" y="149.265" width="6" height="50.7353" stroke="black" stroke-width="1" fill="blue" tooltip="enable"><title>(0.650133,69)</title></rect><rect x="108" y="154.412" width="6" height="45.5882" stroke="black" stroke-width="1" fill="blue" tooltip="enable"><title>(0.688377,62)</title></rect><rect x="114" y="164.706" width="6" height="35.2941" stroke="black" stroke-width="1" fill="blue" tooltip="enable"><title>(0.72662,48)</title></rect><rect x="120" y="159.559" width="6" height="40.4412" stroke="black" stroke-width="1" fill="blue" tooltip="enable"><title>(0.764863,55)</title></rect><rect x="126" y="166.176" width="6" height="33.8235" stroke="black" stroke-width="1" fill="blue" tooltip="enable"><title>(0.803106,46)</title></rect><rect x="132" y="170.588" width="6" height="29.4118" stroke="black" stroke-width="1" fill="blue" tooltip="enable"><title>(0.841349,40)</title></rect><rect x="138" y="166.912" width="6" height="33.0882" stroke="black" stroke-width="1" fill="blue" tooltip="enable"><title>(0.879592,45)</title></rect><rect x="144" y="179.412" width="6" height="20.5882" stroke="black" stroke-width="1" fill="blue" tooltip="enable"><title>(0.917835,28)</title></rect><rect x="150" y="175" width="6" height="25" stroke="black" stroke-width="1" fill="blue" tooltip="enable"><title>(0.956079,34)</title></rect><rect x="156" y="177.206" width="6" height="22.7941" stroke="black" stroke-width="1" fill="blue" tooltip="enable"><title>(0.994322,31)</title></rect><rect x="162" y="175" width="6" height="25" stroke="black" stroke-width="1" fill="blue" tooltip="enable"><title>(1.03256,34)</title></rect><rect x="168" y="174.265" width="6" height="25.7353" stroke="black" stroke-width="1" fill="blue" tooltip="enable"><title>(1.07081,35)</title></rect><rect x="174" y="177.941" width="6" height="22.0588" stroke="black" stroke-width="1" fill="blue" tooltip="enable"><title>(1.10905,30)</title></rect><rect x="180" y="178.676" width="6" height="21.3235" stroke="black" stroke-width="1" fill="blue" tooltip="enable"><title>(1.14729,29)</title></rect><rect x="186" y="179.412" width="6" height="20.5882" stroke="black" stroke-width="1" fill="blue" tooltip="enable"><title>(1.18554,28)</title></rect><rect x="192" y="188.235" width="6" height="11.7647" stroke="black" stroke-width="1" fill="blue" tooltip="enable"><title>(1.22378,16)</title></rect><rect x="198" y="188.235" width="6" height="11.7647" stroke="black" stroke-width="1" fill="blue" tooltip="enable"><title>(1.26202,16)</title></rect><rect x="204" y="190.441" width="6" height="9.55882" stroke="black" stroke-width="1" fill="blue" tooltip="enable"><title>(1.30027,13)</title></rect><rect x="210" y="188.235" width="6" height="11.7647" stroke="black" stroke-width="1" fill="blue" tooltip="enable"><title>(1.33851,16)</title></rect><rect x="216" y="184.559" width="6" height="15.4412" stroke="black" stroke-width="1" fill="blue" tooltip="enable"><title>(1.37675,21)</title></rect><rect x="222" y="188.971" width="6" height="11.0294" stroke="black" stroke-width="1" fill="blue" tooltip="enable"><title>(1.415,15)</title></rect><rect x="228" y="191.176" width="6" height="8.82353" stroke="black" stroke-width="1" fill="blue" tooltip="enable"><title>(1.45324,12)</title></rect><rect x="234" y="188.235" width="6" height="11.7647" stroke="black" stroke-width="1" fill="blue" tooltip="enable"><title>(1.49148,16)</title></rect><rect x="240" y="186.765" width="6" height="13.2353" stroke="black" stroke-width="1" fill="blue" tooltip="enable"><title>(1.52973,18)</title></rect><rect x="246" y="189.706" width="6" height="10.2941" stroke="black" stroke-width="1" fill="blue" tooltip="enable"><title>(1.56797,14)</title></rect><rect x="252" y="192.647" width="6" height="7.35294" stroke="black" stroke-width="1" fill="blue" tooltip="enable"><title>(1.60621,10)</title></rect><rect x="258" y="188.971" width="6" height="11.0294" stroke="black" stroke-width="1" fill="blue" tooltip="enable"><title>(1.64446,15)</title></rect><rect x="264" y="193.382" width="6" height="6.61765" stroke="black" stroke-width="1" fill="blue" tooltip="enable"><title>(1.6827,9)</title></rect><rect x="270" y="194.118" width="6" height="5.88235" stroke="black" stroke-width="1" fill="blue" tooltip="enable"><title>(1.72094,8)</title></rect><rect x="276" y="193.382" width="6" height="6.61765" stroke="black" stroke-width="1" fill="blue" tooltip="enable"><title>(1.75918,9)</title></rect><rect x="282" y="194.118" width="6" height="5.88235" stroke="black" stroke-width="1" fill="blue" tooltip="enable"><title>(1.79743,8)</title></rect><rect x="288" y="194.853" width="6" height="5.14706" stroke="black" stroke-width="1" fill="blue" tooltip="enable"><title>(1.83567,7)</title></rect><rect x="294" y="193.382" width="6" height="6.61765" stroke="black" stroke-width="1" fill="blue" tooltip="enable"><title>(1.87391,9)</title></rect><rect x="300" y="194.853" width="6" height="5.14706" stroke="black" stroke-width="1" fill="blue" tooltip="enable"><title>(1.91216,7)</title></rect><rect x="306" y="190.441" width="6" height="9.55882" stroke="black" stroke-width="1" fill="blue" tooltip="enable"><title>(1.9504,13)</title></rect><rect x="312" y="195.588" width="6" height="4.41176" stroke="black" stroke-width="1" fill="blue" tooltip="enable"><title>(1.98864,6)</title></rect><rect x="318" y="194.853" width="6" height="5.14706" stroke="black" stroke-width="1" fill="blue" tooltip="enable"><title>(2.02689,7)</title></rect><rect x="324" y="196.324" width="6" height="3.67647" stroke="black" stroke-width="1" fill="blue" tooltip="enable"><title>(2.06513,5)</title></rect><rect x="330" y="198.529" width="6" height="1.47059" stroke="black" stroke-width="1" fill="blue" tooltip="enable"><title>(2.10337,2)</title></rect><rect x="336" y="194.853" width="6" height="5.14706" stroke="black" stroke-width="1" fill="blue" tooltip="enable"><title>(2.14162,7)</title></rect><rect x="342" y="195.588" width="6" height="4.41176" stroke="black" stroke-width="1" fill="blue" tooltip="enable"><title>(2.17986,6)</title></rect><rect x="348" y="197.059" width="6" height="2.94118" stroke="black" stroke-width="1" fill="blue" tooltip="enable"><title>(2.2181,4)</title></rect><rect x="354" y="198.529" width="6" height="1.47059" stroke="black" stroke-width="1" fill="blue" tooltip="enable"><title>(2.25635,2)</title></rect><rect x="360" y="196.324" width="6" height="3.67647" stroke="black" stroke-width="1" fill="blue" tooltip="enable"><title>(2.29459,5)</title></rect><rect x="366" y="197.794" width="6" height="2.20588" stroke="black" stroke-width="1" fill="blue" tooltip="enable"><title>(2.33283,3)</title></rect><rect x="372" y="196.324" width="6" height="3.67647" stroke="black" stroke-width="1" fill="blue" tooltip="enable"><title>(2.37107,5)</title></rect><rect x="378" y="199.265" width="6" height="0.735294" stroke="black" stroke-width="1" fill="blue" tooltip="enable"><title>(2.40932,1)</title></rect><rect x="384" y="197.794" width="6" height="2.20588" stroke="black" stroke-width="1" fill="blue" tooltip="enable"><title>(2.44756,3)</title></rect><rect x="390" y="197.794" width="6" height="2.20588" stroke="black" stroke-width="1" fill="blue" tooltip="enable"><title>(2.4858,3)</title></rect><rect x="396" y="198.529" width="6" height="1.47059" stroke="black" stroke-width="1" fill="blue" tooltip="enable"><title>(2.52405,2)</title></rect><rect x="402" y="197.059" width="6" height="2.94118" stroke="black" stroke-width="1" fill="blue" tooltip="enable"><title>(2.56229,4)</title></rect><rect x="408" y="198.529" width="6" height="1.47059" stroke="black" stroke-width="1" fill="blue" tooltip="enable"><title>(2.60053,2)</title></rect><rect x="414" y="199.265" width="6" height="0.735294" stroke="black" stroke-width="1" fill="blue" tooltip="enable"><title>(2.63878,1)</title></rect><rect x="420" y="199.265" width="6" height="0.735294" stroke="black" stroke-width="1" fill="blue" tooltip="enable"><title>(2.67702,1)</title></rect><rect x="426" y="197.794" width="6" height="2.20588" stroke="black" stroke-width="1" fill="blue" tooltip="enable"><title>(2.71526,3)</title></rect><rect x="432" y="198.529" width="6" height="1.47059" stroke="black" stroke-width="1" fill="blue" tooltip="enable"><title>(2.75351,2)</title></rect><rect x="438" y="198.529" width="6" height="1.47059" stroke="black" stroke-width="1" fill="blue" tooltip="enable"><title>(2.79175,2)</title></rect><rect x="444" y="200" width="6" height="0" stroke="black" stroke-width="1" fill="blue" tooltip="enable"><title>(2.82999,0)</title></rect><rect x="450" y="199.265" width="6" height="0.735294" stroke="black" stroke-width="1" fill="blue" tooltip="enable"><title>(2.86824,1)</title></rect><rect x="456" y="200" width="6" height="0" stroke="black" stroke-width="1" fill="blue" tooltip="enable"><title>(2.90648,0)</title></rect><rect x="462" y="200" width="6" height="0" stroke="black" stroke-width="1" fill="blue" tooltip="enable"><title>(2.94472,0)</title></rect><rect x="468" y="200" width="6" height="0" stroke="black" stroke-width="1" fill="blue" tooltip="enable"><title>(2.98296,0)</title></rect><rect x="474" y="197.059" width="6" height="2.94118" stroke="black" stroke-width="1" fill="blue" tooltip="enable"><title>(3.02121,4)</title></rect><rect x="480" y="200" width="6" height="0" stroke="black" stroke-width="1" fill="blue" tooltip="enable"><title>(3.05945,0)</title></rect><rect x="486" y="200" width="6" height="0" stroke="black" stroke-width="1" fill="blue" tooltip="enable"><title>(3.09769,0)</title></rect><rect x="492" y="200" width="6" height="0" stroke="black" stroke-width="1" fill="blue" tooltip="enable"><title>(3.13594,0)</title></rect><rect x="498" y="200" width="6" height="0" stroke="black" stroke-width="1" fill="blue" tooltip="enable"><title>(3.17418,0)</title></rect><rect x="504" y="198.529" width="6" height="1.47059" stroke="black" stroke-width="1" fill="blue" tooltip="enable"><title>(3.21242,2)</title></rect><rect x="510" y="200" width="6" height="0" stroke="black" stroke-width="1" fill="blue" tooltip="enable"><title>(3.25067,0)</title></rect><rect x="516" y="198.529" width="6" height="1.47059" stroke="black" stroke-width="1" fill="blue" tooltip="enable"><title>(3.28891,2)</title></rect><rect x="522" y="199.265" width="6" height="0.735294" stroke="black" stroke-width="1" fill="blue" tooltip="enable"><title>(3.32715,1)</title></rect><rect x="528" y="200" width="6" height="0" stroke="black" stroke-width="1" fill="blue" tooltip="enable"><title>(3.3654,0)</title></rect><rect x="534" y="197.794" width="6" height="2.20588" stroke="black" stroke-width="1" fill="blue" tooltip="enable"><title>(3.40364,3)</title></rect><rect x="540" y="200" width="6" height="0" stroke="black" stroke-width="1" fill="blue" tooltip="enable"><title>(3.44188,0)</title></rect><rect x="546" y="200" width="6" height="0" stroke="black" stroke-width="1" fill="blue" tooltip="enable"><title>(3.48013,0)</title></rect><rect x="552" y="200" width="6" height="0" stroke="black" stroke-width="1" fill="blue" tooltip="enable"><title>(3.51837,0)</title></rect><rect x="558" y="200" width="6" height="0" stroke="black" stroke-width="1" fill="blue" tooltip="enable"><title>(3.55661,0)</title></rect><rect x="564" y="199.265" width="6" height="0.735294" stroke="black" stroke-width="1" fill="blue" tooltip="enable"><title>(3.59486,1)</title></rect><rect x="570" y="200" width="6" height="0" stroke="black" stroke-width="1" fill="blue" tooltip="enable"><title>(3.6331,0)</title></rect><rect x="576" y="200" width="6" height="0" stroke="black" stroke-width="1" fill="blue" tooltip="enable"><title>(3.67134,0)</title></rect><rect x="582" y="200" width="6" height="0" stroke="black" stroke-width="1" fill="blue" tooltip="enable"><title>(3.70958,0)</title></rect><rect x="588" y="200" width="6" height="0" stroke="black" stroke-width="1" fill="blue" tooltip="enable"><title>(3.74783,0)</title></rect><rect x="594" y="200" width="6" height="0" stroke="black" stroke-width="1" fill="blue" tooltip="enable"><title>(3.78607,0)</title></rect><text x="30" y="240" font-size="20" fill="black">0</text>
<text x="600" y="240" font-size="20" fill="black">3.82431</text>
<polyline points="0,220,600,220" stroke="black" stroke-width="1" fill="none"/>
<text x="720" y="20" font-size="20" fill="black">272</text>
<text x="720" y="200" font-size="20" fill="black">0</text>
<polyline points="660,0,660,200" stroke="black" stroke-width="1" fill="none"/>
</svg>