<?xml version="1.0" standalone="yes"?>
<!-- SVG graphic -->
<svg xmlns='http://www.w3.org/2000/svg' xmlns:xlink='http://www.w3.org/1999/xlink'
 version="1.1">
<rect x="0" y="0" width="6" height="200" stroke="black" stroke-width="1" fill="blue" tooltip="enable"><title>(0,868)</title></rect><rect x="6" y="39.8618" width="6" height="160.138" stroke="black" stroke-width="1" fill="blue" tooltip="enable"><title>(0.0381653,695)</title></rect><rect x="12" y="72.1198" width="6" height="127.88" stroke="black" stroke-width="1" fill="blue" tooltip="enable"><title>(0.0763305,555)</title></rect><rect x="18" y="92.3963" width="6" height="107.604" stroke="black" stroke-width="1" fill="blue" tooltip="enable"><title>(0.114496,467)</title></rect><rect x="24" y="97.0046" width="6" height="102.995" stroke="black" stroke-width="1" fill="blue" tooltip="enable"><title>(0.152661,447)</title></rect><rect x="30" y="112.903" width="6" height="87.0968" stroke="black" stroke-width="1" fill="blue" tooltip="enable"><title>(0.190826,378)</title></rect><rect x="36" y="123.272" width="6" height="76.7281" stroke="black" stroke-width="1" fill="blue" tooltip="enable"><title>(0.228992,333)</title></rect><rect x="42" y="128.571" width="6" height="71.4286" stroke="black" stroke-width="1" fill="blue" tooltip="enable"><title>(0.267157,310)</title></rect><rect x="48" y="131.106" width="6" height="68.894" stroke="black" stroke-width="1" fill="blue" tooltip="enable"><title>(0.305322,299)</title></rect><rect x="54" y="136.175" width="6" height="63.8249" stroke="black" stroke-width="1" fill="blue" tooltip="enable"><title>(0.343487,277)</title></rect><rect x="60" y="136.866" width="6" height="63.1336" stroke="black" stroke-width="1" fill="blue" tooltip="enable"><title>(0.381653,274)</title></rect><rect x="66" y="142.857" width="6" height="57.1429" stroke="black" stroke-width="1" fill="blue" tooltip="enable"><title>(0.419818,248)</title></rect><rect x="72" y="152.535" width="6" height="47.4654" stroke="black" stroke-width="1" fill="blue" tooltip="enable"><title>(0.457983,206)</title></rect><rect x="78" y="157.604" width="6" height="42.3963" stroke="black" stroke-width="1" fill="blue" tooltip="enable"><title>(0.496148,184)</title></rect><rect x="84" y="159.217" width="6" height="40.7834" stroke="black" stroke-width="1" fill="blue" tooltip="enable"><title>(0.534314,177)</title></rect><rect x="90" y="158.295" width="6" height="41.7051" stroke="black" stroke-width="1" fill="blue" tooltip="enable"><title>(0.572479,181)</title></rect><rect x="96" y="166.359" width="6" height="33.6406" stroke="black" stroke-width="1" fill="blue" tooltip="enable"><title>(0.610644,146)</title></rect><rect x="102" y="163.134" width="6" height="36.8664" stroke="black" stroke-width="1" fill="blue" tooltip="enable"><title>(0.648809,160)</title></rect><rect x="108" y="163.364" width="6" height="36.6359" stroke="black" stroke-width="1" fill="blue" tooltip="enable"><title>(0.686975,159)</title></rect><rect x="114" y="168.433" width="6" height="31.5668" stroke="black" stroke-width="1" fill="blue" tooltip="enable"><title>(0.72514,137)</title></rect><rect x="120" y="173.733" width="6" height="26.2673" stroke="black" stroke-width="1" fill="blue" tooltip="enable"><title>(0.763305,114)</title></rect><rect x="126" y="170.046" width="6" height="29.9539" stroke="black" stroke-width="1" fill="blue" tooltip="enable"><title>(0.80147,130)</title></rect><rect x="132" y="174.424" width="6" height="25.576" stroke="black" stroke-width="1" fill="blue" tooltip="enable"><title>(0.839636,111)</title></rect><rect x="138" y="180.415" width="6" height="19.5853" stroke="black" stroke-width="1" fill="blue" tooltip="enable"><title>(0.877801,85)</title></rect><rect x="144" y="180.184" width="6" height="19.8157" stroke="black" stroke-width="1" fill="blue" tooltip="enable"><title>(0.915966,86)</title></rect><rect x="150" y="179.493" width="6" height="20.5069" stroke="black" stroke-width="1" fill="blue" tooltip="enable"><title>(0.954131,89)</title></rect><rect x="156" y="184.332" width="6" height="15.6682" stroke="black" stroke-width="1" fill="blue" tooltip="enable"><title>(0.992297,68)</title></rect><rect x="162" y="181.797" width="6" height="18.2028" stroke="black" stroke-width="1" fill="blue" tooltip="enable"><title>(1.03046,79)</title></rect><rect x="168" y="179.724" width="6" height="20.2765" stroke="black" stroke-width="1" fill="blue" tooltip="enable"><title>(1.06863,88)</title></rect><rect x="174" y="185.714" width="6" height="14.2857" stroke="black" stroke-width="1" fill="blue" tooltip="enable"><title>(1.10679,62)</title></rect><rect x="180" y="188.94" width="6" height="11.0599" stroke="black" stroke-width="1" fill="blue" tooltip="enable"><title>(1.14496,48)</title></rect><rect x="186" y="187.327" width="6" height="12.6728" stroke="black" stroke-width="1" fill="blue" tooltip="enable"><title>(1.18312,55)</title></rect><rect x="192" y="188.479" width="6" height="11.5207" stroke="black" stroke-width="1" fill="blue" tooltip="enable"><title>(1.22129,50)</title></rect><rect x="198" y="189.401" width="6" height="10.5991" stroke="black" stroke-width="1" fill="blue" tooltip="enable"><title>(1.25945,46)</title></rect><rect x="204" y="191.475" width="6" height="8.52535" stroke="black" stroke-width="1" fill="blue" tooltip="enable"><title>(1.29762,37)</title></rect><rect x="210" y="189.171" width="6" height="10.8295" stroke="black" stroke-width="1" fill="blue" tooltip="enable"><title>(1.33578,47)</title></rect><rect x="216" y="189.862" width="6" height="10.1382" stroke="black" stroke-width="1" fill="blue" tooltip="enable"><title>(1.37395,44)</title></rect><rect x="222" y="192.857" width="6" height="7.14286" stroke="black" stroke-width="1" fill="blue" tooltip="enable"><title>(1.41211,31)</title></rect><rect x="228" y="187.558" width="6" height="12.4424" stroke="black" stroke-width="1" fill="blue" tooltip="enable"><title>(1.45028,54)</title></rect><rect x="234" y="192.396" width="6" height="7.60369" stroke="black" stroke-width="1" fill="blue" tooltip="enable"><title>(1.48844,33)</title></rect><rect x="240" y="193.779" width="6" height="6.2212" stroke="black" stroke-width="1" fill="blue" tooltip="enable"><title>(1.52661,27)</title></rect><rect x="246" y="190.783" width="6" height="9.21659" stroke="black" stroke-width="1" fill="blue" tooltip="enable"><title>(1.56478,40)</title></rect><rect x="252" y="194.47" width="6" height="5.52995" stroke="black" stroke-width="1" fill="blue" tooltip="enable"><title>(1.60294,24)</title></rect><rect x="258" y="195.853" width="6" height="4.14747" stroke="black" stroke-width="1" fill="blue" tooltip="enable"><title>(1.64111,18)</title></rect><rect x="264" y="196.544" width="6" height="3.45622" stroke="black" stroke-width="1" fill="blue" tooltip="enable"><title>(1.67927,15)</title></rect><rect x="270" y="193.088" width="6" height="6.91244" stroke="black" stroke-width="1" fill="blue" tooltip="enable"><title>(1.71744,30)</title></rect><rect x="276" y="196.774" width="6" height="3.22581" stroke="black" stroke-width="1" fill="blue" tooltip="enable"><title>(1.7556,14)</title></rect><rect x="282" y="196.544" width="6" height="3.45622" stroke="black" stroke-width="1" fill="blue" tooltip="enable"><title>(1.79377,15)</title></rect><rect x="288" y="195.161" width="6" height="4.83871" stroke="black" stroke-width="1" fill="blue" tooltip="enable"><title>(1.83193,21)</title></rect><rect x="294" y="197.005" width="6" height="2.99539" stroke="black" stroke-width="1" fill="blue" tooltip="enable"><title>(1.8701,13)</title></rect><rect x="300" y="196.544" width="6" height="3.45622" stroke="black" stroke-width="1" fill="blue" tooltip="enable"><title>(1.90826,15)</title></rect><rect x="306" y="196.313" width="6" height="3.68664" stroke="black" stroke-width="1" fill="blue" tooltip="enable"><title>(1.94643,16)</title></rect><rect x="312" y="195.853" width="6" height="4.14747" stroke="black" stroke-width="1" fill="blue" tooltip="enable"><title>(1.98459,18)</title></rect><rect x="318" y="197.235" width="6" height="2.76498" stroke="black" stroke-width="1" fill="blue" tooltip="enable"><title>(2.02276,12)</title></rect><rect x="324" y="198.387" width="6" height="1.6129" stroke="black" stroke-width="1" fill="blue" tooltip="enable"><title>(2.06092,7)</title></rect><rect x="330" y="197.235" width="6" height="2.76498" stroke="black" stroke-width="1" fill="blue" tooltip="enable"><title>(2.09909,12)</title></rect><rect x="336" y="197.005" width="6" height="2.99539" stroke="black" stroke-width="1" fill="blue" tooltip="enable"><title>(2.13725,13)</title></rect><rect x="342" y="197.235" width="6" height="2.76498" stroke="black" stroke-width="1" fill="blue" tooltip="enable"><title>(2.17542,12)</title></rect><rect x="348" y="198.387" width="6" height="1.6129" stroke="black" stroke-width="1" fill="blue" tooltip="enable"><title>(2.21358,7)</title></rect><rect x="354" y="198.848" width="6" height="1.15207" stroke="black" stroke-width="1" fill="blue" tooltip="enable"><title>(2.25175,5)</title></rect><rect x="360" y="197.926" width="6" height="2.07373" stroke="black" stroke-width="1" fill="blue" tooltip="enable"><title>(2.28992,9)</title></rect><rect x="366" y="197.926" width="6" height="2.07373" stroke="black" stroke-width="1" fill="blue" tooltip="enable"><title>(2.32808,9)</title></rect><rect x="372" y="198.157" width="6" height="1.84332" stroke="black" stroke-width="1" fill="blue" tooltip="enable"><title>(2.36625,8)</title></rect><rect x="378" y="197.005" width="6" height="2.99539" stroke="black" stroke-width="1" fill="blue" tooltip="enable"><title>(2.40441,13)</title></rect><rect x="384" y="198.618" width="6" height="1.38249" stroke="black" stroke-width="1" fill="blue" tooltip="enable"><title>(2.44258,6)</title></rect><rect x="390" y="198.387" width="6" height="1.6129" stroke="black" stroke-width="1" fill="blue" tooltip="enable"><title>(2.48074,7)</title></rect><rect x="396" y="197.465" width="6" height="2.53456" stroke="black" stroke-width="1" fill="blue" tooltip="enable"><title>(2.51891,11)</title></rect><rect x="402" y="199.309" width="6" height="0.691244" stroke="black" stroke-width="1" fill="blue" tooltip="enable"><title>(2.55707,3)</title></rect><rect x="408" y="199.77" width="6" height="0.230415" stroke="black" stroke-width="1" fill="blue" tooltip="enable"><title>(2.59524,1)</title></rect><rect x="414" y="199.078" width="6" height="0.921659" stroke="black" stroke-width="1" fill="blue" tooltip="enable"><title>(2.6334,4)</title></rect><rect x="420" y="199.078" width="6" height="0.921659" stroke="black" stroke-width="1" fill="blue" tooltip="enable"><title>(2.67157,4)</title></rect><rect x="426" y="199.309" width="6" height="0.691244" stroke="black" stroke-width="1" fill="blue" tooltip="enable"><title>(2.70973,3)</title></rect><rect x="432" y="198.157" width="6" height="1.84332" stroke="black" stroke-width="1" fill="blue" tooltip="enable"><title>(2.7479,8)</title></rect><rect x="438" y="198.157" width="6" height="1.84332" stroke="black" stroke-width="1" fill="blue" tooltip="enable"><title>(2.78606,8)</title></rect><rect x="444" y="198.618" width="6" height="1.38249" stroke="black" stroke-width="1" fill="blue" tooltip="enable"><title>(2.82423,6)</title></rect><rect x="450" y="199.77" width="6" height="0.230415" stroke="black" stroke-width="1" fill="blue" tooltip="enable"><title>(2.86239,1)</title></rect><rect x="456" y="199.078" width="6" height="0.921659" stroke="black" stroke-width="1" fill="blue" tooltip="enable"><title>(2.90056,4)</title></rect><rect x="462" y="199.539" width="6" height="0.460829" stroke="black" stroke-width="1" fill="blue" tooltip="enable"><title>(2.93872,2)</title></rect><rect x="468" y="199.078" width="6" height="0.921659" stroke="black" stroke-width="1" fill="blue" tooltip="enable"><title>(2.97689,4)</title></rect><rect x="474" y="199.309" width="6" height="0.691244" stroke="black" stroke-width="1" fill="blue" tooltip="enable"><title>(3.01506,3)</title></rect><rect x="480" y="200" width="6" height="0" stroke="black" stroke-width="1" fill="blue" tooltip="enable"><title>(3.05322,0)</title></rect><rect x="486" y="199.309" width="6" height="0.691244" stroke="black" stroke-width="1" fill="blue" tooltip="enable"><title>(3.09139,3)</title></rect><rect x="492" y="199.539" width="6" height="0.460829" stroke="black" stroke-width="1" fill="blue" tooltip="enable"><title>(3.12955,2)</title></rect><rect x="498" y="200" width="6" height="0" stroke="black" stroke-width="1" fill="blue" tooltip="enable"><title>(3.16772,0)</title></rect><rect x="504" y="199.539" width="6" height="0.460829" stroke="black" stroke-width="1" fill="blue" tooltip="enable"><title>(3.20588,2)</title></rect><rect x="510" y="199.539" width="6" height="0.460829" stroke="black" stroke-width="1" fill="blue" tooltip="enable"><title>(3.24405,2)</title></rect><rect x="516" y="199.77" width="6" height="0.230415" stroke="black" stroke-width="1" fill="blue" tooltip="enable"><title>(3.28221,1)</title></rect><rect x="522" y="199.77" width="6" height="0.230415" stroke="black" stroke-width="1" fill="blue" tooltip="enable"><title>(3.32038,1)</title></rect><rect x="528" y="199.309" width="6" height="0.691244" stroke="black" stroke-width="1" fill="blue" tooltip="enable"><title>(3.35854,3)</title></rect><rect x="534" y="199.539" width="6" height="0.460829" stroke="black" stroke-width="1" fill="blue" tooltip="enable"><title>(3.39671,2)</title></rect><rect x="540" y="200" width="6" height="0" stroke="black" stroke-width="1" fill="blue" tooltip="enable"><title>(3.43487,0)</title></rect><rect x="546" y="200" width="6" height="0" stroke="black" stroke-width="1" fill="blue" tooltip="enable"><title>(3.47304,0)</title></rect><rect x="552" y="199.539" width="6" height="0.460829" stroke="black" stroke-width="1" fill="blue" tooltip="enable"><title>(3.5112,2)</title></rect><rect x="558" y="199.77" width="6" height="0.230415" stroke="black" stroke-width="1" fill="blue" tooltip="enable"><title>(3.54937,1)</title></rect><rect x="564" y="199.309" width="6" height="0.691244" stroke="black" stroke-width="1" fill="blue" tooltip="enable"><title>(3.58753,3)</title></rect><rect x="570" y="200" width="6" height="0" stroke="black" stroke-width="1" fill="blue" tooltip="enable"><title>(3.6257,0)</title></rect><rect x="576" y="199.77" width="6" height="0.230415" stroke="black" stroke-width="1" fill="blue" tooltip="enable"><title>(3.66386,1)</title></rect><rect x="582" y="200" width="6" height="0" stroke="black" stroke-width="1" fill="blue" tooltip="enable"><title>(3.70203,0)</title></rect><rect x="588" y="199.539" width="6" height="0.460829" stroke="black" stroke-width="1" fill="blue" tooltip="enable"><title>(3.7402,2)</title></rect><rect x="594" y="200" width="6" height="0" stroke="black" stroke-width="1" fill="blue" tooltip="enable"><title>(3.77836,0)</title></rect><text x="30" y="240" font-size="20" fill="black">0</text>
<text x="600" y="240" font-size="20" fill="black">3.81653</text>
<polyline points="0,220,600,220" stroke="black" stroke-width="1" fill="none"/>
<text x="720" y="20" font-size="20" fill="black">868</text>
<text x="720" y="200" font-size="20" fill="black">0</text>
<polyline points="660,0,660,200" stroke="black" stroke-width="1" fill="none"/>
</svg>