<?xml version="1.0" standalone="yes"?>
<!-- SVG graphic -->
<svg xmlns='http://www.w3.org/2000/svg' xmlns:xlink='http://www.w3.org/1999/xlink'
width="325px" height="325px" preserveAspectRatio="xMinYMin meet" viewBox="0 0 325 325" version="1.1">
<rect x="5" y="0" width="2.5" height="2.5" fill="rgb(116,0,138)" tooltip="enable"><title>(1,0 68)</title></rect><rect x="10" y="0" width="2.5" height="2.5" fill="rgb(88,0,166)" tooltip="enable"><title>(2,0 52)</title></rect><rect x="20" y="0" width="2.5" height="2.5" fill="rgb(59,0,195)" tooltip="enable"><title>(4,0 35)</title></rect><rect x="25" y="0" width="2.5" height="2.5" fill="rgb(35,0,219)" tooltip="enable"><title>(5,0 21)</title></rect><rect x="30" y="0" width="2.5" height="2.5" fill="rgb(32,0,222)" tooltip="enable"><title>(6,0 19)</title></rect><rect x="295" y="0" width="2.5" height="2.5" fill="rgb(46,0,208)" tooltip="enable"><title>(59,0 27)</title></rect><rect x="300" y="0" width="2.5" height="2.5" fill="rgb(49,0,205)" tooltip="enable"><title>(60,0 29)</title></rect><rect x="305" y="0" width="2.5" height="2.5" fill="rgb(34,0,220)" tooltip="enable"><title>(61,0 20)</title></rect><rect x="10" y="5" width="2.5" height="2.5" fill="rgb(140,0,114)" tooltip="enable"><title>(2,1 82)</title></rect><rect x="15" y="5" width="2.5" height="2.5" fill="rgb(35,0,219)" tooltip="enable"><title>(3,1 21)</title></rect><rect x="20" y="5" width="2.5" height="2.5" fill="rgb(54,0,200)" tooltip="enable"><title>(4,1 32)</title></rect><rect x="25" y="5" width="2.5" height="2.5" fill="rgb(49,0,205)" tooltip="enable"><title>(5,1 29)</title></rect><rect x="30" y="5" width="2.5" height="2.5" fill="rgb(37,0,217)" tooltip="enable"><title>(6,1 22)</title></rect><rect x="285" y="5" width="2.5" height="2.5" fill="rgb(34,0,220)" tooltip="enable"><title>(57,1 20)</title></rect><rect x="290" y="5" width="2.5" height="2.5" fill="rgb(46,0,208)" tooltip="enable"><title>(58,1 27)</title></rect><rect x="295" y="5" width="2.5" height="2.5" fill="rgb(51,0,203)" tooltip="enable"><title>(59,1 30)</title></rect><rect x="300" y="5" width="2.5" height="2.5" fill="rgb(39,0,215)" tooltip="enable"><title>(60,1 23)</title></rect><rect x="305" y="5" width="2.5" height="2.5" fill="rgb(34,0,220)" tooltip="enable"><title>(61,1 20)</title></rect><rect x="15" y="10" width="2.5" height="2.5" fill="rgb(73,0,181)" tooltip="enable"><title>(3,2 43)</title></rect><rect x="20" y="10" width="2.5" height="2.5" fill="rgb(95,0,159)" tooltip="enable"><title>(4,2 56)</title></rect><rect x="25" y="10" width="2.5" height="2.5" fill="rgb(77,0,177)" tooltip="enable"><title>(5,2 45)</title></rect><rect x="30" y="10" width="2.5" height="2.5" fill="rgb(53,0,201)" tooltip="enable"><title>(6,2 31)</title></rect><rect x="35" y="10" width="2.5" height="2.5" fill="rgb(37,0,217)" tooltip="enable"><title>(7,2 22)</title></rect><rect x="265" y="10" width="2.5" height="2.5" fill="rgb(37,0,217)" tooltip="enable"><title>(53,2 22)</title></rect><rect x="270" y="10" width="2.5" height="2.5" fill="rgb(39,0,215)" tooltip="enable"><title>(54,2 23)</title></rect><rect x="280" y="10" width="2.5" height="2.5" fill="rgb(39,0,215)" tooltip="enable"><title>(56,2 23)</title></rect><rect x="285" y="10" width="2.5" height="2.5" fill="rgb(37,0,217)" tooltip="enable"><title>(57,2 22)</title></rect><rect x="290" y="10" width="2.5" height="2.5" fill="rgb(39,0,215)" tooltip="enable"><title>(58,2 23)</title></rect><rect x="295" y="10" width="2.5" height="2.5" fill="rgb(44,0,210)" tooltip="enable"><title>(59,2 26)</title></rect><rect x="300" y="10" width="2.5" height="2.5" fill="rgb(82,0,172)" tooltip="enable"><title>(60,2 48)</title></rect><rect x="305" y="10" width="2.5" height="2.5" fill="rgb(49,0,205)" tooltip="enable"><title>(61,2 29)</title></rect><rect x="20" y="15" width="2.5" height="2.5" fill="rgb(53,0,201)" tooltip="enable"><title>(4,3 31)</title></rect><rect x="265" y="15" width="2.5" height="2.5" fill="rgb(41,0,213)" tooltip="enable"><title>(53,3 24)</title></rect><rect x="270" y="15" width="2.5" height="2.5" fill="rgb(34,0,220)" tooltip="enable"><title>(54,3 20)</title></rect><rect x="275" y="15" width="2.5" height="2.5" fill="rgb(37,0,217)" tooltip="enable"><title>(55,3 22)</title></rect><rect x="280" y="15" width="2.5" height="2.5" fill="rgb(37,0,217)" tooltip="enable"><title>(56,3 22)</title></rect><rect x="290" y="15" width="2.5" height="2.5" fill="rgb(49,0,205)" tooltip="enable"><title>(58,3 29)</title></rect><rect x="295" y="15" width="2.5" height="2.5" fill="rgb(46,0,208)" tooltip="enable"><title>(59,3 27)</title></rect><rect x="300" y="15" width="2.5" height="2.5" fill="rgb(35,0,219)" tooltip="enable"><title>(60,3 21)</title></rect><rect x="305" y="15" width="2.5" height="2.5" fill="rgb(34,0,220)" tooltip="enable"><title>(61,3 20)</title></rect><rect x="25" y="20" width="2.5" height="2.5" fill="rgb(174,0,80)" tooltip="enable"><title>(5,4 102)</title></rect><rect x="30" y="20" width="2.5" height="2.5" fill="rgb(44,0,210)" tooltip="enable"><title>(6,4 26)</title></rect><rect x="35" y="20" width="2.5" height="2.5" fill="rgb(54,0,200)" tooltip="enable"><title>(7,4 32)</title></rect><rect x="40" y="20" width="2.5" height="2.5" fill="rgb(44,0,210)" tooltip="enable"><title>(8,4 26)</title></rect><rect x="270" y="20" width="2.5" height="2.5" fill="rgb(30,0,224)" tooltip="enable"><title>(54,4 18)</title></rect><rect x="280" y="20" width="2.5" height="2.5" fill="rgb(30,0,224)" tooltip="enable"><title>(56,4 18)</title></rect><rect x="285" y="20" width="2.5" height="2.5" fill="rgb(41,0,213)" tooltip="enable"><title>(57,4 24)</title></rect><rect x="290" y="20" width="2.5" height="2.5" fill="rgb(35,0,219)" tooltip="enable"><title>(58,4 21)</title></rect><rect x="295" y="20" width="2.5" height="2.5" fill="rgb(42,0,212)" tooltip="enable"><title>(59,4 25)</title></rect><rect x="300" y="20" width="2.5" height="2.5" fill="rgb(49,0,205)" tooltip="enable"><title>(60,4 29)</title></rect><rect x="305" y="20" width="2.5" height="2.5" fill="rgb(58,0,196)" tooltip="enable"><title>(61,4 34)</title></rect><rect x="30" y="25" width="2.5" height="2.5" fill="rgb(88,0,166)" tooltip="enable"><title>(6,5 52)</title></rect><rect x="35" y="25" width="2.5" height="2.5" fill="rgb(73,0,181)" tooltip="enable"><title>(7,5 43)</title></rect><rect x="40" y="25" width="2.5" height="2.5" fill="rgb(70,0,184)" tooltip="enable"><title>(8,5 41)</title></rect><rect x="45" y="25" width="2.5" height="2.5" fill="rgb(39,0,215)" tooltip="enable"><title>(9,5 23)</title></rect><rect x="50" y="25" width="2.5" height="2.5" fill="rgb(30,0,224)" tooltip="enable"><title>(10,5 18)</title></rect><rect x="140" y="25" width="2.5" height="2.5" fill="rgb(30,0,224)" tooltip="enable"><title>(28,5 18)</title></rect><rect x="300" y="25" width="2.5" height="2.5" fill="rgb(35,0,219)" tooltip="enable"><title>(60,5 21)</title></rect><rect x="305" y="25" width="2.5" height="2.5" fill="rgb(42,0,212)" tooltip="enable"><title>(61,5 25)</title></rect><rect x="35" y="30" width="2.5" height="2.5" fill="rgb(95,0,159)" tooltip="enable"><title>(7,6 56)</title></rect><rect x="40" y="30" width="2.5" height="2.5" fill="rgb(56,0,198)" tooltip="enable"><title>(8,6 33)</title></rect><rect x="45" y="30" width="2.5" height="2.5" fill="rgb(51,0,203)" tooltip="enable"><title>(9,6 30)</title></rect><rect x="140" y="30" width="2.5" height="2.5" fill="rgb(35,0,219)" tooltip="enable"><title>(28,6 21)</title></rect><rect x="300" y="30" width="2.5" height="2.5" fill="rgb(30,0,224)" tooltip="enable"><title>(60,6 18)</title></rect><rect x="40" y="35" width="2.5" height="2.5" fill="rgb(121,0,133)" tooltip="enable"><title>(8,7 71)</title></rect><rect x="45" y="35" width="2.5" height="2.5" fill="rgb(54,0,200)" tooltip="enable"><title>(9,7 32)</title></rect><rect x="50" y="35" width="2.5" height="2.5" fill="rgb(37,0,217)" tooltip="enable"><title>(10,7 22)</title></rect><rect x="45" y="40" width="2.5" height="2.5" fill="rgb(90,0,164)" tooltip="enable"><title>(9,8 53)</title></rect><rect x="50" y="40" width="2.5" height="2.5" fill="rgb(65,0,189)" tooltip="enable"><title>(10,8 38)</title></rect><rect x="50" y="45" width="2.5" height="2.5" fill="rgb(166,0,88)" tooltip="enable"><title>(10,9 97)</title></rect><rect x="55" y="45" width="2.5" height="2.5" fill="rgb(56,0,198)" tooltip="enable"><title>(11,9 33)</title></rect><rect x="55" y="50" width="2.5" height="2.5" fill="rgb(231,0,23)" tooltip="enable"><title>(11,10 135)</title></rect><rect x="290" y="50" width="2.5" height="2.5" fill="rgb(30,0,224)" tooltip="enable"><title>(58,10 18)</title></rect><rect x="75" y="70" width="2.5" height="2.5" fill="rgb(41,0,213)" tooltip="enable"><title>(15,14 24)</title></rect><rect x="80" y="75" width="2.5" height="2.5" fill="rgb(136,0,118)" tooltip="enable"><title>(16,15 80)</title></rect><rect x="85" y="75" width="2.5" height="2.5" fill="rgb(73,0,181)" tooltip="enable"><title>(17,15 43)</title></rect><rect x="90" y="75" width="2.5" height="2.5" fill="rgb(49,0,205)" tooltip="enable"><title>(18,15 29)</title></rect><rect x="275" y="75" width="2.5" height="2.5" fill="rgb(30,0,224)" tooltip="enable"><title>(55,15 18)</title></rect><rect x="85" y="80" width="2.5" height="2.5" fill="rgb(162,0,92)" tooltip="enable"><title>(17,16 95)</title></rect><rect x="90" y="80" width="2.5" height="2.5" fill="rgb(99,0,155)" tooltip="enable"><title>(18,16 58)</title></rect><rect x="95" y="80" width="2.5" height="2.5" fill="rgb(44,0,210)" tooltip="enable"><title>(19,16 26)</title></rect><rect x="90" y="85" width="2.5" height="2.5" fill="rgb(157,0,97)" tooltip="enable"><title>(18,17 92)</title></rect><rect x="95" y="85" width="2.5" height="2.5" fill="rgb(41,0,213)" tooltip="enable"><title>(19,17 24)</title></rect><rect x="100" y="85" width="2.5" height="2.5" fill="rgb(35,0,219)" tooltip="enable"><title>(20,17 21)</title></rect><rect x="120" y="85" width="2.5" height="2.5" fill="rgb(32,0,222)" tooltip="enable"><title>(24,17 19)</title></rect><rect x="125" y="85" width="2.5" height="2.5" fill="rgb(30,0,224)" tooltip="enable"><title>(25,17 18)</title></rect><rect x="290" y="85" width="2.5" height="2.5" fill="rgb(37,0,217)" tooltip="enable"><title>(58,17 22)</title></rect><rect x="95" y="90" width="2.5" height="2.5" fill="rgb(145,0,109)" tooltip="enable"><title>(19,18 85)</title></rect><rect x="100" y="90" width="2.5" height="2.5" fill="rgb(77,0,177)" tooltip="enable"><title>(20,18 45)</title></rect><rect x="105" y="90" width="2.5" height="2.5" fill="rgb(56,0,198)" tooltip="enable"><title>(21,18 33)</title></rect><rect x="110" y="90" width="2.5" height="2.5" fill="rgb(41,0,213)" tooltip="enable"><title>(22,18 24)</title></rect><rect x="115" y="90" width="2.5" height="2.5" fill="rgb(41,0,213)" tooltip="enable"><title>(23,18 24)</title></rect><rect x="120" y="90" width="2.5" height="2.5" fill="rgb(46,0,208)" tooltip="enable"><title>(24,18 27)</title></rect><rect x="125" y="90" width="2.5" height="2.5" fill="rgb(34,0,220)" tooltip="enable"><title>(25,18 20)</title></rect><rect x="130" y="90" width="2.5" height="2.5" fill="rgb(41,0,213)" tooltip="enable"><title>(26,18 24)</title></rect><rect x="135" y="90" width="2.5" height="2.5" fill="rgb(30,0,224)" tooltip="enable"><title>(27,18 18)</title></rect><rect x="100" y="95" width="2.5" height="2.5" fill="rgb(131,0,123)" tooltip="enable"><title>(20,19 77)</title></rect><rect x="105" y="95" width="2.5" height="2.5" fill="rgb(80,0,174)" tooltip="enable"><title>(21,19 47)</title></rect><rect x="110" y="95" width="2.5" height="2.5" fill="rgb(61,0,193)" tooltip="enable"><title>(22,19 36)</title></rect><rect x="115" y="95" width="2.5" height="2.5" fill="rgb(56,0,198)" tooltip="enable"><title>(23,19 33)</title></rect><rect x="120" y="95" width="2.5" height="2.5" fill="rgb(59,0,195)" tooltip="enable"><title>(24,19 35)</title></rect><rect x="130" y="95" width="2.5" height="2.5" fill="rgb(32,0,222)" tooltip="enable"><title>(26,19 19)</title></rect><rect x="135" y="95" width="2.5" height="2.5" fill="rgb(32,0,222)" tooltip="enable"><title>(27,19 19)</title></rect><rect x="140" y="95" width="2.5" height="2.5" fill="rgb(34,0,220)" tooltip="enable"><title>(28,19 20)</title></rect><rect x="105" y="100" width="2.5" height="2.5" fill="rgb(135,0,119)" tooltip="enable"><title>(21,20 79)</title></rect><rect x="110" y="100" width="2.5" height="2.5" fill="rgb(124,0,130)" tooltip="enable"><title>(22,20 73)</title></rect><rect x="115" y="100" width="2.5" height="2.5" fill="rgb(80,0,174)" tooltip="enable"><title>(23,20 47)</title></rect><rect x="120" y="100" width="2.5" height="2.5" fill="rgb(53,0,201)" tooltip="enable"><title>(24,20 31)</title></rect><rect x="125" y="100" width="2.5" height="2.5" fill="rgb(34,0,220)" tooltip="enable"><title>(25,20 20)</title></rect><rect x="110" y="105" width="2.5" height="2.5" fill="rgb(171,0,83)" tooltip="enable"><title>(22,21 100)</title></rect><rect x="115" y="105" width="2.5" height="2.5" fill="rgb(95,0,159)" tooltip="enable"><title>(23,21 56)</title></rect><rect x="120" y="105" width="2.5" height="2.5" fill="rgb(65,0,189)" tooltip="enable"><title>(24,21 38)</title></rect><rect x="125" y="105" width="2.5" height="2.5" fill="rgb(35,0,219)" tooltip="enable"><title>(25,21 21)</title></rect><rect x="115" y="110" width="2.5" height="2.5" fill="rgb(169,0,85)" tooltip="enable"><title>(23,22 99)</title></rect><rect x="120" y="110" width="2.5" height="2.5" fill="rgb(100,0,154)" tooltip="enable"><title>(24,22 59)</title></rect><rect x="125" y="110" width="2.5" height="2.5" fill="rgb(53,0,201)" tooltip="enable"><title>(25,22 31)</title></rect><rect x="130" y="110" width="2.5" height="2.5" fill="rgb(42,0,212)" tooltip="enable"><title>(26,22 25)</title></rect><rect x="140" y="110" width="2.5" height="2.5" fill="rgb(37,0,217)" tooltip="enable"><title>(28,22 22)</title></rect><rect x="290" y="110" width="2.5" height="2.5" fill="rgb(41,0,213)" tooltip="enable"><title>(58,22 24)</title></rect><rect x="120" y="115" width="2.5" height="2.5" fill="rgb(188,0,66)" tooltip="enable"><title>(24,23 110)</title></rect><rect x="125" y="115" width="2.5" height="2.5" fill="rgb(112,0,142)" tooltip="enable"><title>(25,23 66)</title></rect><rect x="130" y="115" width="2.5" height="2.5" fill="rgb(68,0,186)" tooltip="enable"><title>(26,23 40)</title></rect><rect x="135" y="115" width="2.5" height="2.5" fill="rgb(44,0,210)" tooltip="enable"><title>(27,23 26)</title></rect><rect x="140" y="115" width="2.5" height="2.5" fill="rgb(41,0,213)" tooltip="enable"><title>(28,23 24)</title></rect><rect x="145" y="115" width="2.5" height="2.5" fill="rgb(37,0,217)" tooltip="enable"><title>(29,23 22)</title></rect><rect x="125" y="120" width="2.5" height="2.5" fill="rgb(219,0,35)" tooltip="enable"><title>(25,24 128)</title></rect><rect x="130" y="120" width="2.5" height="2.5" fill="rgb(140,0,114)" tooltip="enable"><title>(26,24 82)</title></rect><rect x="135" y="120" width="2.5" height="2.5" fill="rgb(66,0,188)" tooltip="enable"><title>(27,24 39)</title></rect><rect x="140" y="120" width="2.5" height="2.5" fill="rgb(59,0,195)" tooltip="enable"><title>(28,24 35)</title></rect><rect x="145" y="120" width="2.5" height="2.5" fill="rgb(35,0,219)" tooltip="enable"><title>(29,24 21)</title></rect><rect x="150" y="120" width="2.5" height="2.5" fill="rgb(34,0,220)" tooltip="enable"><title>(30,24 20)</title></rect><rect x="130" y="125" width="2.5" height="2.5" fill="rgb(219,0,35)" tooltip="enable"><title>(26,25 128)</title></rect><rect x="135" y="125" width="2.5" height="2.5" fill="rgb(126,0,128)" tooltip="enable"><title>(27,25 74)</title></rect><rect x="140" y="125" width="2.5" height="2.5" fill="rgb(66,0,188)" tooltip="enable"><title>(28,25 39)</title></rect><rect x="145" y="125" width="2.5" height="2.5" fill="rgb(49,0,205)" tooltip="enable"><title>(29,25 29)</title></rect><rect x="150" y="125" width="2.5" height="2.5" fill="rgb(44,0,210)" tooltip="enable"><title>(30,25 26)</title></rect><rect x="135" y="130" width="2.5" height="2.5" fill="rgb(217,0,37)" tooltip="enable"><title>(27,26 127)</title></rect><rect x="140" y="130" width="2.5" height="2.5" fill="rgb(83,0,171)" tooltip="enable"><title>(28,26 49)</title></rect><rect x="145" y="130" width="2.5" height="2.5" fill="rgb(54,0,200)" tooltip="enable"><title>(29,26 32)</title></rect><rect x="150" y="130" width="2.5" height="2.5" fill="rgb(56,0,198)" tooltip="enable"><title>(30,26 33)</title></rect><rect x="155" y="130" width="2.5" height="2.5" fill="rgb(32,0,222)" tooltip="enable"><title>(31,26 19)</title></rect><rect x="140" y="135" width="2.5" height="2.5" fill="rgb(188,0,66)" tooltip="enable"><title>(28,27 110)</title></rect><rect x="145" y="135" width="2.5" height="2.5" fill="rgb(61,0,193)" tooltip="enable"><title>(29,27 36)</title></rect><rect x="150" y="135" width="2.5" height="2.5" fill="rgb(47,0,207)" tooltip="enable"><title>(30,27 28)</title></rect><rect x="155" y="135" width="2.5" height="2.5" fill="rgb(35,0,219)" tooltip="enable"><title>(31,27 21)</title></rect><rect x="160" y="135" width="2.5" height="2.5" fill="rgb(30,0,224)" tooltip="enable"><title>(32,27 18)</title></rect><rect x="145" y="140" width="2.5" height="2.5" fill="rgb(99,0,155)" tooltip="enable"><title>(29,28 58)</title></rect><rect x="150" y="140" width="2.5" height="2.5" fill="rgb(56,0,198)" tooltip="enable"><title>(30,28 33)</title></rect><rect x="155" y="140" width="2.5" height="2.5" fill="rgb(56,0,198)" tooltip="enable"><title>(31,28 33)</title></rect><rect x="150" y="145" width="2.5" height="2.5" fill="rgb(124,0,130)" tooltip="enable"><title>(30,29 73)</title></rect><rect x="155" y="145" width="2.5" height="2.5" fill="rgb(59,0,195)" tooltip="enable"><title>(31,29 35)</title></rect><rect x="155" y="150" width="2.5" height="2.5" fill="rgb(99,0,155)" tooltip="enable"><title>(31,30 58)</title></rect><rect x="160" y="150" width="2.5" height="2.5" fill="rgb(41,0,213)" tooltip="enable"><title>(32,30 24)</title></rect><rect x="165" y="150" width="2.5" height="2.5" fill="rgb(30,0,224)" tooltip="enable"><title>(33,30 18)</title></rect><rect x="160" y="155" width="2.5" height="2.5" fill="rgb(73,0,181)" tooltip="enable"><title>(32,31 43)</title></rect><rect x="165" y="155" width="2.5" height="2.5" fill="rgb(35,0,219)" tooltip="enable"><title>(33,31 21)</title></rect><rect x="165" y="160" width="2.5" height="2.5" fill="rgb(87,0,167)" tooltip="enable"><title>(33,32 51)</title></rect><rect x="170" y="160" width="2.5" height="2.5" fill="rgb(41,0,213)" tooltip="enable"><title>(34,32 24)</title></rect><rect x="170" y="165" width="2.5" height="2.5" fill="rgb(100,0,154)" tooltip="enable"><title>(34,33 59)</title></rect><rect x="175" y="165" width="2.5" height="2.5" fill="rgb(34,0,220)" tooltip="enable"><title>(35,33 20)</title></rect><rect x="175" y="170" width="2.5" height="2.5" fill="rgb(92,0,162)" tooltip="enable"><title>(35,34 54)</title></rect><rect x="180" y="170" width="2.5" height="2.5" fill="rgb(37,0,217)" tooltip="enable"><title>(36,34 22)</title></rect><rect x="180" y="175" width="2.5" height="2.5" fill="rgb(63,0,191)" tooltip="enable"><title>(36,35 37)</title></rect><rect x="185" y="180" width="2.5" height="2.5" fill="rgb(44,0,210)" tooltip="enable"><title>(37,36 26)</title></rect><rect x="200" y="185" width="2.5" height="2.5" fill="rgb(35,0,219)" tooltip="enable"><title>(40,37 21)</title></rect><rect x="195" y="190" width="2.5" height="2.5" fill="rgb(41,0,213)" tooltip="enable"><title>(39,38 24)</title></rect><rect x="275" y="190" width="2.5" height="2.5" fill="rgb(68,0,186)" tooltip="enable"><title>(55,38 40)</title></rect><rect x="285" y="190" width="2.5" height="2.5" fill="rgb(78,0,176)" tooltip="enable"><title>(57,38 46)</title></rect><rect x="290" y="190" width="2.5" height="2.5" fill="rgb(90,0,164)" tooltip="enable"><title>(58,38 53)</title></rect><rect x="295" y="190" width="2.5" height="2.5" fill="rgb(70,0,184)" tooltip="enable"><title>(59,38 41)</title></rect><rect x="300" y="190" width="2.5" height="2.5" fill="rgb(63,0,191)" tooltip="enable"><title>(60,38 37)</title></rect><rect x="200" y="195" width="2.5" height="2.5" fill="rgb(41,0,213)" tooltip="enable"><title>(40,39 24)</title></rect><rect x="205" y="195" width="2.5" height="2.5" fill="rgb(35,0,219)" tooltip="enable"><title>(41,39 21)</title></rect><rect x="210" y="195" width="2.5" height="2.5" fill="rgb(32,0,222)" tooltip="enable"><title>(42,39 19)</title></rect><rect x="205" y="200" width="2.5" height="2.5" fill="rgb(66,0,188)" tooltip="enable"><title>(41,40 39)</title></rect><rect x="210" y="205" width="2.5" height="2.5" fill="rgb(44,0,210)" tooltip="enable"><title>(42,41 26)</title></rect><rect x="240" y="230" width="2.5" height="2.5" fill="rgb(58,0,196)" tooltip="enable"><title>(48,46 34)</title></rect><rect x="245" y="230" width="2.5" height="2.5" fill="rgb(56,0,198)" tooltip="enable"><title>(49,46 33)</title></rect><rect x="250" y="230" width="2.5" height="2.5" fill="rgb(47,0,207)" tooltip="enable"><title>(50,46 28)</title></rect><rect x="265" y="230" width="2.5" height="2.5" fill="rgb(41,0,213)" tooltip="enable"><title>(53,46 24)</title></rect><rect x="270" y="230" width="2.5" height="2.5" fill="rgb(30,0,224)" tooltip="enable"><title>(54,46 18)</title></rect><rect x="260" y="235" width="2.5" height="2.5" fill="rgb(30,0,224)" tooltip="enable"><title>(52,47 18)</title></rect><rect x="265" y="235" width="2.5" height="2.5" fill="rgb(30,0,224)" tooltip="enable"><title>(53,47 18)</title></rect><rect x="245" y="240" width="2.5" height="2.5" fill="rgb(66,0,188)" tooltip="enable"><title>(49,48 39)</title></rect><rect x="250" y="240" width="2.5" height="2.5" fill="rgb(35,0,219)" tooltip="enable"><title>(50,48 21)</title></rect><rect x="255" y="240" width="2.5" height="2.5" fill="rgb(30,0,224)" tooltip="enable"><title>(51,48 18)</title></rect><rect x="250" y="245" width="2.5" height="2.5" fill="rgb(90,0,164)" tooltip="enable"><title>(50,49 53)</title></rect><rect x="255" y="245" width="2.5" height="2.5" fill="rgb(54,0,200)" tooltip="enable"><title>(51,49 32)</title></rect><rect x="265" y="245" width="2.5" height="2.5" fill="rgb(32,0,222)" tooltip="enable"><title>(53,49 19)</title></rect><rect x="270" y="245" width="2.5" height="2.5" fill="rgb(32,0,222)" tooltip="enable"><title>(54,49 19)</title></rect><rect x="275" y="245" width="2.5" height="2.5" fill="rgb(44,0,210)" tooltip="enable"><title>(55,49 26)</title></rect><rect x="280" y="245" width="2.5" height="2.5" fill="rgb(30,0,224)" tooltip="enable"><title>(56,49 18)</title></rect><rect x="255" y="250" width="2.5" height="2.5" fill="rgb(133,0,121)" tooltip="enable"><title>(51,50 78)</title></rect><rect x="260" y="250" width="2.5" height="2.5" fill="rgb(75,0,179)" tooltip="enable"><title>(52,50 44)</title></rect><rect x="265" y="250" width="2.5" height="2.5" fill="rgb(56,0,198)" tooltip="enable"><title>(53,50 33)</title></rect><rect x="270" y="250" width="2.5" height="2.5" fill="rgb(42,0,212)" tooltip="enable"><title>(54,50 25)</title></rect><rect x="290" y="250" width="2.5" height="2.5" fill="rgb(112,0,142)" tooltip="enable"><title>(58,50 66)</title></rect><rect x="300" y="250" width="2.5" height="2.5" fill="rgb(66,0,188)" tooltip="enable"><title>(60,50 39)</title></rect><rect x="260" y="255" width="2.5" height="2.5" fill="rgb(130,0,124)" tooltip="enable"><title>(52,51 76)</title></rect><rect x="265" y="255" width="2.5" height="2.5" fill="rgb(94,0,160)" tooltip="enable"><title>(53,51 55)</title></rect><rect x="270" y="255" width="2.5" height="2.5" fill="rgb(78,0,176)" tooltip="enable"><title>(54,51 46)</title></rect><rect x="285" y="255" width="2.5" height="2.5" fill="rgb(99,0,155)" tooltip="enable"><title>(57,51 58)</title></rect><rect x="265" y="260" width="2.5" height="2.5" fill="rgb(205,0,49)" tooltip="enable"><title>(53,52 120)</title></rect><rect x="270" y="260" width="2.5" height="2.5" fill="rgb(114,0,140)" tooltip="enable"><title>(54,52 67)</title></rect><rect x="275" y="260" width="2.5" height="2.5" fill="rgb(75,0,179)" tooltip="enable"><title>(55,52 44)</title></rect><rect x="280" y="260" width="2.5" height="2.5" fill="rgb(58,0,196)" tooltip="enable"><title>(56,52 34)</title></rect><rect x="285" y="260" width="2.5" height="2.5" fill="rgb(44,0,210)" tooltip="enable"><title>(57,52 26)</title></rect><rect x="290" y="260" width="2.5" height="2.5" fill="rgb(34,0,220)" tooltip="enable"><title>(58,52 20)</title></rect><rect x="295" y="260" width="2.5" height="2.5" fill="rgb(34,0,220)" tooltip="enable"><title>(59,52 20)</title></rect><rect x="270" y="265" width="2.5" height="2.5" fill="rgb(219,0,35)" tooltip="enable"><title>(54,53 128)</title></rect><rect x="275" y="265" width="2.5" height="2.5" fill="rgb(95,0,159)" tooltip="enable"><title>(55,53 56)</title></rect><rect x="280" y="265" width="2.5" height="2.5" fill="rgb(71,0,183)" tooltip="enable"><title>(56,53 42)</title></rect><rect x="285" y="265" width="2.5" height="2.5" fill="rgb(54,0,200)" tooltip="enable"><title>(57,53 32)</title></rect><rect x="290" y="265" width="2.5" height="2.5" fill="rgb(71,0,183)" tooltip="enable"><title>(58,53 42)</title></rect><rect x="295" y="265" width="2.5" height="2.5" fill="rgb(51,0,203)" tooltip="enable"><title>(59,53 30)</title></rect><rect x="300" y="265" width="2.5" height="2.5" fill="rgb(39,0,215)" tooltip="enable"><title>(60,53 23)</title></rect><rect x="275" y="270" width="2.5" height="2.5" fill="rgb(207,0,47)" tooltip="enable"><title>(55,54 121)</title></rect><rect x="280" y="270" width="2.5" height="2.5" fill="rgb(111,0,143)" tooltip="enable"><title>(56,54 65)</title></rect><rect x="285" y="270" width="2.5" height="2.5" fill="rgb(77,0,177)" tooltip="enable"><title>(57,54 45)</title></rect><rect x="290" y="270" width="2.5" height="2.5" fill="rgb(65,0,189)" tooltip="enable"><title>(58,54 38)</title></rect><rect x="295" y="270" width="2.5" height="2.5" fill="rgb(71,0,183)" tooltip="enable"><title>(59,54 42)</title></rect><rect x="300" y="270" width="2.5" height="2.5" fill="rgb(59,0,195)" tooltip="enable"><title>(60,54 35)</title></rect><rect x="305" y="270" width="2.5" height="2.5" fill="rgb(37,0,217)" tooltip="enable"><title>(61,54 22)</title></rect><rect x="280" y="275" width="2.5" height="2.5" fill="rgb(147,0,107)" tooltip="enable"><title>(56,55 86)</title></rect><rect x="285" y="275" width="2.5" height="2.5" fill="rgb(66,0,188)" tooltip="enable"><title>(57,55 39)</title></rect><rect x="290" y="275" width="2.5" height="2.5" fill="rgb(63,0,191)" tooltip="enable"><title>(58,55 37)</title></rect><rect x="295" y="275" width="2.5" height="2.5" fill="rgb(44,0,210)" tooltip="enable"><title>(59,55 26)</title></rect><rect x="300" y="275" width="2.5" height="2.5" fill="rgb(32,0,222)" tooltip="enable"><title>(60,55 19)</title></rect><rect x="305" y="275" width="2.5" height="2.5" fill="rgb(34,0,220)" tooltip="enable"><title>(61,55 20)</title></rect><rect x="285" y="280" width="2.5" height="2.5" fill="rgb(186,0,68)" tooltip="enable"><title>(57,56 109)</title></rect><rect x="290" y="280" width="2.5" height="2.5" fill="rgb(154,0,100)" tooltip="enable"><title>(58,56 90)</title></rect><rect x="295" y="280" width="2.5" height="2.5" fill="rgb(95,0,159)" tooltip="enable"><title>(59,56 56)</title></rect><rect x="300" y="280" width="2.5" height="2.5" fill="rgb(65,0,189)" tooltip="enable"><title>(60,56 38)</title></rect><rect x="305" y="280" width="2.5" height="2.5" fill="rgb(42,0,212)" tooltip="enable"><title>(61,56 25)</title></rect><rect x="290" y="285" width="2.5" height="2.5" fill="rgb(227,0,27)" tooltip="enable"><title>(58,57 133)</title></rect><rect x="295" y="285" width="2.5" height="2.5" fill="rgb(148,0,106)" tooltip="enable"><title>(59,57 87)</title></rect><rect x="300" y="285" width="2.5" height="2.5" fill="rgb(92,0,162)" tooltip="enable"><title>(60,57 54)</title></rect><rect x="305" y="285" width="2.5" height="2.5" fill="rgb(66,0,188)" tooltip="enable"><title>(61,57 39)</title></rect><rect x="295" y="290" width="2.5" height="2.5" fill="rgb(222,0,32)" tooltip="enable"><title>(59,58 130)</title></rect><rect x="300" y="290" width="2.5" height="2.5" fill="rgb(131,0,123)" tooltip="enable"><title>(60,58 77)</title></rect><rect x="305" y="290" width="2.5" height="2.5" fill="rgb(75,0,179)" tooltip="enable"><title>(61,58 44)</title></rect><rect x="300" y="295" width="2.5" height="2.5" fill="rgb(255,0,0)" tooltip="enable"><title>(60,59 149)</title></rect><rect x="305" y="295" width="2.5" height="2.5" fill="rgb(130,0,124)" tooltip="enable"><title>(61,59 76)</title></rect><rect x="305" y="300" width="2.5" height="2.5" fill="rgb(126,0,128)" tooltip="enable"><title>(61,60 74)</title></rect><text x="315" y="5" font-size="5" fill="black">0</text>
<text x="315" y="305" font-size="5" fill="black">62</text>
<polyline points="315,10,315,300" stroke="black" stroke-width="1" fill="none"/>
<text x="5" y="315" font-size="5" fill="black">0</text>
<text x="305" y="315" font-size="5" fill="black">62</text>
<polyline points="10,315,300,315" stroke="black" stroke-width="1" fill="none"/>
</svg>